<mxfile host="app.diagrams.net" agent="Mozilla/5.0 (Windows NT 10.0; Win64; x64; rv:138.0) Gecko/20100101 Firefox/138.0" version="27.0.9">
  <diagram name="PÃ¡gina-1" id="dRH5zw2mJTn5rTZuvIXg">
    <mxGraphModel dx="2804" dy="495" grid="1" gridSize="10" guides="1" tooltips="1" connect="1" arrows="1" fold="1" page="1" pageScale="1" pageWidth="1169" pageHeight="827" math="0" shadow="0" adaptiveColors="simple">
      <root>
        <mxCell id="0" />
        <mxCell id="1" parent="0" />
        <mxCell id="J8siXgxXGdqORLvkZh0o-112" value="" style="shape=image;verticalLabelPosition=bottom;labelBackgroundColor=none;verticalAlign=top;aspect=fixed;imageAspect=0;image=data:image/png,iVBORw0KGgoAAAANSUhEUgAAAroAAAMACAYAAADL28S+AAAgAElEQVR4XuydK34cPbOH5ZWM4ZgFZgczMDBmLwzzgA94CQYHjFlgmA0D7R0EhnmgvZKcvrcuJam659aefl5wfueLu3V5qiT9u1TSXP0r/jP8BwEIQAACEIAABCAAgQsjcIXQvTCL0h0IQAACEIAABCAAgYoAQhdHgAAEIAABCEAAAhC4SAII3Ys0K52CAAQgAAEIQAACEEDo4gMQgAAEIAABCEAAAhdJAKF7kWalUxCAAAQgAAEIQAACCF18AAIQgAAEIAABCEDgIgkgdC/SrHQKAhCAAAQgAAEIQAChiw9AAAIQgAAEIAABCFwkAYXQ3ZnN9Y15/BD6v3oy/16+F394NuurW/Na/H+Luzfzvl0eFdZuc21uqgatzNO/F1O2IPXf0OfHNr6rZ3Fn3t63xqYg/e15fWVuS2jVf5G+7Dbm+ubRtPh7vj3z1dM/U5nhSP+57Syb2tr9SBWeudiuv4IdhzVNGDsXzm4YH56GAAQgAAEIHJeAQuj2gipoCkLXQTJM6IYiSPpI8EXmaYVu/CPn2OL6uG6fLv0wQlczbs7ZS+qGAAQgAAEIXD6BQUL3ksXNIUw9VuguFgvz8VHEbIMIYiuWFmax+CiesSPmJ4jodtHkhbl7ezd1oL4Wv7uH40aRD2GP85ZR2ufeLDtutvDV7USct/3UDgEIQAACEPj8BA4kdPvInyuGw6iW8/fntbkq9u4Xd0/m2+/bOj3C2trtUw5q0N27zXu+MBz6vPHSAppKmnSMxrhtXc3/TKVmjBa6d3dm+fhYpX5IfEomT+a2SnM4aUTX4pP+yMnYuWLnPWOJ+i6Cam/rK23s+kDrh4WQfFuaezHlox+0brS8F/OdHa32BOkbtUO6vpKcD+zoOEL380+d9AACEIAABD4DgUFC1+1QGOUrhWoniCQR2RQQCFa74EY8iMKizWMVRNDQ540nYJ2+tSJM7IPdb5fIeKH7Zh52N3W+biee3I+H/37V+bwnFbpN9LbPzxb6rrFz5Jm2L1qhK9u4YNaJ5kQ+ufMREXmuKacIWdc54K0tEn3U56RbQn+QQP4M0whthAAEIAABCEyTwNGErhQV68Rlu9BbYtOJGIqRxFIo/DL/lYfPfKE79HlbwElRRNMIur91xNkVUmtjXtpt/MMJ3fcfP5tDZ020r+tT/b+Lzo8XuilR33YhevBKEoV9RFJjZynntXxvbV6qg4s6oduncfhpFI8frQC32iqJ38DvLOFe8q5MuzWB0BXGrtjmxBjvRTrR3GlOhbQKAhCAAAQukcAgoRvfvvZTF9KRtU44RranO0EcE1/+e7FyWosFf5dEU/mw3w9/Sz4tUvaJ6Nb6qr7doowSvhQysIwq+lHPURHdvYRu7/ZORLWyzQ/zM3YjR/ma90zMf1RCN9OHumw5hcYX46I4t0Z3Urz7s4AiOtun1MR3Ay5xcqFPEIAABCAAgXMTQOh2h4UkoduYxxNZUcHfPRcK4lAE96KsFa/9M8Xhs+LkWSFzu0NgrRgcJXQP6WVOH7fmzxyEbkpkZ4Ru/3GAyD2kG1IWBCAAAQhAQEPgSEK3OHrU3hGbEgKxSOzQVIShzw9JXfj1X3fgKBcJdA632f22czyFHNxOvPq5oMKBrZMK3dI+90vnTmBfsP9V2DmXupC8YzjIl04JRl1Et8/P1qUuSHbP+kIx+lQiN7cboRnFPAMBCEAAAhCAgEhgkNANShDyIDWH0TqxFl3kY6kPTaQ0eG/o80WSQvejEwIXIYfYfip1ACl6YKoqwI70hhFdO3WifNquJxXR9XtwqGvgUoxG2dlraOAHkotKtzMEz7VclULXvwGiLS92GG1MRDdxgK3yhOZHPk71YybMfxCAAAQgAIE5ElAI3US+bUroljQzp+3TubhhvenrxYY+X7RPEDC+iI3/YEPCXSRhFOQbS0LXbpOb/hAK3dP8mEMo3PU3LzgsfSYeD1dUl3U8mN1N8Wt73nPJ2zWCHOvaRnL01c+/Tl8vFlxdV1wJtyuuhPuI7VgohW42H32OsxJ9hgAEIAABCByIgELoamqK3aOreZdnIAABCEAAAhCAAAQgcHgCewvdMBInX711+KZTIgQgAAEIQAACEIAABOIEDip09ZfnYxIIQAACEIAABCAAAQgcl8DeQve4zaN0CEAAAhCAAAQgAAEIjCOA0B3HjbcgAAEIQAACEIAABCZOAKE7cQPRPAhAAAIQgAAEIACBcQQQuuO48RYEIAABCEAAAhCAwMQJIHQnbiCaBwEIQAACEIAABCAwjgBCdxw33oIABCAAAQhAAAIQmDgBhO7EDUTzIAABCEAAAhCAAATGEUDojuPGWxCAAAQgAAEIQAACEyeA0J24gWgeBCAAAQhAAAIQgMA4Agjdcdx4CwIQgAAEIAABCEBg4gQQuhM3EM2DAAQgAAEIQAACEBhHAKE7jhtvQQACEIAABCAAAQhMnABCd+IGonkQgAAEIAABCEAAAuMIIHTHceMtCEAAAhCAAAQgAIGJE0DoTtxANA8CEIAABCAAAQhAYBwBhO44brwFAQhAAAIQgAAEIDBxAgjdiRuI5kEAAhCAAAQgAAEIjCOA0B3HjbcgAAEIQAACEIAABCZOAKE7cQPRPAhAAAIQgAAEIACBcQQQuuO48RYEIAABCEAAAhCAwMQJIHQnbiCaBwEIQAACEIAABCAwjgBCdxw33oIABCAAAQhAAAIQmDgBhO7EDUTzIAABCEAAAhCAAATGEUDojuPGWxCAAAQgAAEIQAACEyeA0J24gWgeBCAAAQhAAAIQgMA4Agjdcdx4CwIQgAAEIAABCEBg4gQQuhM3EM2DAAQgAAEIQAACEBhHAKE7jhtvQQACEIAABCAAAQhMnABCd+IGonkQgAAEIAABCEAAAuMIIHTHceMtCEAAAhCAAAQgAIGJE0DoTtxANA8CEIAABCAAAQhAYBwBhO44brwFAQhAAAIQgAAEIDBxAgjdiRuI5kEAAhCAAAQgAAEIjCOA0B3HjbcgAAEIQAACEIAABCZOAKE7cQPRPAhAAAIQgAAEIACBcQQQuuO48RYEIAABCEAAAhCAwMQJIHQnbiCaBwEIQAACEIAABCAwjgBCdxw33oIABCAAAQhAAAIQmDgBhO7EDUTzIAABCEAAAhCAAATGEUDojuPGWxCAAAQgAAEIQAACEyeA0J24gWgeBCAAAQhAAAIQgMA4Agjdcdx4CwIQgAAEIAABCEBg4gQQuhM3EM2DAAQgAAEIQAACEBhHAKE7jhtvQQACEIAABCAAAQhMnABCd+IGonkQgAAEIAABCEAAAuMIIHTHceMtCEAAAhCAAAQgAIGJE0DoTtxANA8CEIAABCAAAQhAYBwBhO44brwFAQhAAAIQgAAEIDBxAgjdiRuI5kEAAhCAAAQgAAEIjCOA0B3HjbcgAAEIQAACEIAABCZOAKE7cQPRPAhAAAIQgAAEIACBcQQQuuO48RYEIAABCEAAAhCAwMQJIHQnbiCaBwEIQAACEIAABCAwjgBC1+a225jrzVfz/vJ9HM2Le2tnNtc35nH5ZP41TJ7XV+Z2d2fe3rdmeXH93b9Du821uXlcmqd/LwYvGs4T/xrO7CLeKOfem0ezfPpnmH4HWPR5ba5ud+bu7d1smZAHgDvto8G8ht1OagCErmnE3IfPfcHk0bLphG7LaoWQiwxThO4+8xf+tQ+9Me+W/rr5+n5+cYnQHWM+U883H2bFB8Iofqd6yRe62O1U5Ot6Zi5024U1FLWTWQBO6w9ebWFE96zN+QSVI3Q/gZFoYkNgQuMboYtXXjABdqrOa9x5C91q++DVLO7ezLty32e3WZufP16CbaLSke+XqXKezfrq3ixPscW0VwpGufitjXkpt8KGLISK/hW8r/9sM6yLcsrqvf3LSkDuHroUCnnYlO3dmK/vbtrA8/ra/NnGt/Z0ZccHavn+2rxU/UoJ3byPJCaD0lfvl9GUEVUfijLKdu61NVwJkp15yKVmKHwwNpZkCgr/ys6lZRm/zH/Rttf+vnvIbJ8XfVv//GFenDlD+W6mjZKv5j+667p/f0vMP6L/aMa3PB5Nxh/rbkbelRhEhW6eq8r3Y9yrNcAodqhyvmPqsZ+dowoq9QTnpjYdmmeFf0Dfrv+YbSIdLds3VfsjRlCtC9nB3TxwgHlCHN8lztwaH/fVwwjd/FjQUso/V3DM+ES+jOk8MUmhWznFawNpcbx80Lqe/DZ89ZxZmdXrq6mb1b/jtLVrcr/gtFsUrskHpEWIuTzlYL41u06gNwvdcmVM0UY7C2PIllbYl4VZLD7MRyJHV9M/+RmLY7XI/TZ18+vW1x8ff6t+tq7QMVz1OcPtZL5aFbaxHyyeeVveV9t63X+OL9UMk2XnxmnzoWQ/tlgszMeHm6Ob85FkNY0AiNlUZGvzqdY7azx5PipOwJLPCe2wx0GxzNdiK+uDcqpQ66exLb6x4yccu01JgQ8FnuBuBzeiwfazqs3Fp0P5sez/px53gu83A8C8PezMjVO2P1cpfDjmP1/qnFg3Y6spPzoeTZ2z76d52eMq+m4mgdQXusLYqmYMe4s+eEY/r2rmLZXvFG3Kj0FhbFTMfpifOZ5lpyUWLXNhrO7TNz/ok+1bZn5Kzm1Cv1arVTWPd2ccxA8g6QNNGgt6f5DWEWdO8oa4w0nhq+kcXXlO7OpQlJ/n7Odx+xqiWSccnVOXOiQQmFsyz/X3yQldaVEuSB/h8FPjXCZfdtumwOCSIMgmmYcOtr+T9gOlXwj0/avqFyaUbpKzREH+y9TvX9jfIOrZTZb5j47g3XYSsHykn5yt8prnUgJkWNqBMNlK/RjlI71HVG36/U32f2kRiAgGt9/PZrP5YrZFRFIndKWFxf83nQ/WjI2b/160efN3a7bF6b3h/pWeOqWxm8+PE/or+JlcsyZKar0Z9ZlyZbUW6ua5Aly3IyJ+qHt+nvSfIAe/adeA8VgLBGsRHfKuDTCbuhA5GGusj17tKiqwbD/UHq31QOU7mjFonQPJfgAF80Uj4PyP183GfNkWB4Ij/G0/0fYt8CdF39L+lTKIcv5UCl1p3sjPJVb7YuN71Pwd8VX7EHdCJ+TXoYFzjCpY1gdEbJ2jDQZqh965npuW0BWjRjWa7AQxmKBeCMYGTP3F70+09cRUfJJGtoiP4aRymfkB4wmq4LYAxYANuPvvCDz8LbXsIudPSNbCmog+uie4c3Yp6sh+pIQCxT8l7jMf5yN9PfVEI0cm5EXG3cbO+YBK6DZRum9e2o1bv84Hc4tP7u/dom3tMqSGvlxe/mMzHYFRiGvtzSSi70vt89MTYn1whVHKf6Ish4xH/9kh7w4Suv5HUPthlf849q0VGxP+R5jGdzRjcJDPDuXpzVl79U0qK/jIdv0w7V+JcRLxk1gQxJ1nFWtMWbW/zqQnCvH2irHzt+876vlE/AgLG56fJxNrZvWnSETXn7eGrImDNdjpXkDoaiO6wcIlbze0pstubXhf6FGTq77GdCJjuCBQCl1pa6Xrn6KM5OIocbaE315CN1P2iInRnagH+Ei0LrsMV/CKux9tOQ3/3ISoErqRrbPmE7TZZtT4YP4jL94eb+9QOX7k/qeiSZYh7J2k1IQvfaBrd6HGCt3omIlH2p0IcdXNiD0yYlXyuy4QcUihm+Vqb1frBW90THg21viOZgzmhG6SZ05oqNocfsRrxv2gvlXpLENTBcJr0UYJ3USATN0mkfOA+Tvjqzqhmwi+ZcdCYrFSaYjIblrO/06nVfeqaVpCtxqPYT7hcVIX2twqbxtVwKmZ8GJWCLdJ84u9U5bKSTUiI+0n2j76z+X7pxCT0cWxWchSgmO00FWUfSihq4w+pi3Uc2w/onIitvpuz9x7rFnwdJFujQ/mfX+4f43xa287uBHywZadZqtR826qiUcXum3lof8MF7pCFHVoBDI+Ubr36A7i2gtezc7ffkJXiJhno/cxv1fwzAmNYwvdbN9S/jVUfLVrsnXGQZO6MPbjym5eSujm5m+Fr6qEbszWivKTs6BKQyB091LSY152xK42MjKmovYrKRMdik2MOREhLyT5xT4rdIPtDY3IyMgo8YcOwvwwt89Svd6/VW3NnNKPTVTSAPX/bazQ1ZQ9WKC0H2reYUX1YpF3Ypt/cTIo++MUY1IXgjxa1UKi88HcmBnsXxlkYn1ef6RnVAtT5EMi10enyWOFrrD1WJWb2frM8+3LCH68QWrrkYSuyiYuyODHbdLBh/BHXep1JzN2vf7mxlfdhgGR86E8lakLqr4py0p//yt/UCgyp/jtlM6OtNvur926nU9Fys6sEZGpGcsaX83PJ/E+aMofLHSFeUIV9MiCnOYDk4vonhpTJ6qDk8PViZnq4Ec6AhBeT7YrDgr8LQ4KfG8nOCs9QjrgleyzL8atLYw+AqUTGYPqaRbSasM4ehgt3GoJ+6c4DZsUuq9WfnZb1gFSF5qv5D4CJJSdBtacQJdu4AgPwYWnmVsfSapp77o06SOiODnvf6g9F4e7vhSHu8qD7sLHXOnP7VV4fkS+P8hnb0MKkaeq2f2htthiHjs86Ptue6WXKMT2GD/h+A77EiyubaqGInVB9e7gDyZNjm6/+xUcQP1o/a/sq33dXjhPaD4EuubHPrCLbetDpy7kufrXHw0QO+2YCOzrzuUa35HGVz00rDGYEbr9wbE+6h63aVm2ddWgL9CG9C2XjxkLBHV9y/tX3PVj47BacKzr3vydN2s98del4CxDUcfmb3HoVvEblQOiqdWnS7fGh8GN7pYMy79yQjclqPNjIaOaVBqCiO6ptefJ6+sXd6tq7U0DYv5ieFq6u5GncP675aN5HHBa2G/f6unNLO/tezMPIHSrydm9KqkUIw+7G+fAXTAg/dyhoH8RcWYL6ETEsFtsGtOs7u7M7vG36Q5GjY3oVt1102SCsrOe6In4cmKrroTy7uXM+UiiHr+N7iJgCVmvjPQ1TPZC4qeWFH97W5r74ro39/BZJF8tkYtdLwhh1DkYb6kFIetfaSO1/lqNuS7N188l9D/GVububmce7YM40S1kxbtHErr1kPVTvdxc1dzf3TFvXy8m/xyvb7tFMR6Xj0VQoD18q4r+C0CC93JcBX8csvvn+1XRJP9jVOc7mjEY38XL8qxVc3AVYje+E/OffQtcrG/OT7kry6qn7vqwdda/ksMznD+fvv02t/6haMW6JI+Fyqi6G5tSKSLZ+Tvnq4KIdOrLza358nNLVV5DIHRzDPk7BKIEkqeAY9dmwRMCByKg2Xo8UFUUc2EE8J3TG1SXCnL6dlHj5yYw+9SFz22+6bdenrjC3N/p94QWfkYCiJXPaLVptBnfOb0dELqnZz6HGhG6c7DyWfsY2ZbRbimdte1U/tkJIFY+uwXP13585/TsEbqnZz6HGhG6c7AyfYQABCAAAQhAAAIzJIDQnaHR6TIEIAABCEAAAhCYAwGE7hysTB8hAAEIQAACEIDADAkgdGdodLoMAQhAAAIQgAAE5kAAoTsHK9NHCEAAAhCAAAQgMEMCCN0ZGp0uQwACEIAABCAAgTkQQOjOwcr0EQIQgAAEIAABCMyQAEJ3hkanyxCAAAQgAAEIQGAOBBC6c7AyfYQABCAAAQhAAAIzJIDQnaHR6TIEIAABCEAAAhCYAwGE7hysTB8hAAEIQAACEIDADAkgdGdodLoMAQhAAAIQgAAE5kAAoTsHK9NHCEAAAhCAAAQgMEMCCN0ZGp0uQwACEIAABCAAgTkQQOjOwcr0EQIQgAAEIAABCMyQAEJ3hkanyxCAAAQgAAEIQGAOBBC6c7AyfYQABCAAAQhAAAIzJIDQnaHR6TIEIAABCEAAAhCYAwGEbsLKz+src7u7M2/vW7MsnvP/9xwchD5CwCGw25jrm0ezfPpnXr7D5lMSeF6bq9uduXt7N9tyYpvgf7vNtbl5XJqnfy+mcrNP0OYJYjxek5p54GPRr4/Hq6xyALO+ujW7uzfzPlWnPS6AoPRgjJy4/s9UHUJXLXR3ZnN9Yx4/Vv3ke1BLFwP5+o/ZNqL6oEVT2BkIXKg9K8HxahZHWnCe19fmz3a6AuwMjrRXlRLPeoH8MKsJf6z4i/hnaPNehhr4cslj8/X9bB+bVdDHPJl/J/vaRej6LlLZ4HUx6Q/WgW59tMcRumqhezQb1AUTsTgy4BMXjz1HAGcxGwEtNYN92igY0aqUJzRBl+UphabVniKau/m7NduT7ugwNxx2bphXaQjdxt67zdr8/PHibOUNSVUon71f5rdVohGrrDAqB/q9WR5ku1Fb1qGiktr6DjP4JFsOLVlrz2hkJWfP8u/3yy4tZmj73OcLvmtjXiLRlUo0/P6Wreu5LqTeKrb/Kxa29c8f5iW3ZVhtZ+7MQ7vdHOtU+dzmq3kP2ptfzLR20fIs2azNS3w7VGknmd1h/T5mnziTPM+Qk+xLlQ/tHjIRvLQf5mxi22Ko0M3uBCh9MzZ3aMdQro9dUGOvsa8TuqK/KP053Y+cX9ft2z3sm95U1vPL/FfNJ3Ff1vmmyjIDHjrU2lhFuRLzd4613GTdPBmrt2ZdbF2fbcdggCFUj85c6LbpCC6rdktPk6Nbbx+47zvbupXgMWa1ejWv9nNWblO6jNrp3CrGblfky6q3pFZmVTTWbW5exIceJ/BdtVEIebIeusD1daZsqa8ra89qwfxtlitT2PPD6nKf0hIvwzTpLx6psXluTRqBU1rGrwpPtFJvai6/686Yqjft+4LfVuPii5Cj2+brOQ3J1NM8222fj+jLqPSJqP3sMSX7UsemanucXQG1Sg3wZoURW4wJ+5TLY2ruSfH0P8IEJjXbv8LcU1TcjeESQzgeBttFaOtisTAfH4kcXcW8Wpup9lfXGm76WTjnpceyO4ZU62znL6FbDMxxTfYn5i8/zM8q7S427zT+bvy2NOtFZ2/l+hFZ57Sk2rHltLfwh8VH0QErZapNZ3GnnRFRbvHcQbhmHHZtrAZwlQYmzd+aOURaK8esX914FX2rXBLGrP16a5/iyVkL3dpRyrFj5QRa2zJZoStF7fx/a53ZFjPNvzk5cpEIoBRVHhJptp1IU1Y7UGznrv9tRG5yswh+E6PQevGpGQhpWyrr0tizmwwsHs2/2ZOwOhUlF/mNdt5fhOoHnzcb82VbHJ6UfKyJirz6HxvF+hHka0p+awmH/jCaxNb/t1449vVIi2skaqOxi8ZJHOFj+3PDMvXBEbRB6lOsEWMiq72YLhd82T7egbKgjUqekk9HuhIsrgPelYsU/Ecqc9S8qvHN/oMhWNBVY0jreMJzo8d+LKI7wCdFnml/yq8fB4oEClyCdUkSp2MPyg4RuoUuPcjaGMzF3vwduEs4llUHNsWP2vLDz1/P5Y8dcV3dw+XP9eqshW5OMOaErpyQ7w12cTITFqDEc8EWQhPN6E4kq7wnMgl5ZYlMxk7IzUIhfxEqxaeqb7kbMXR1qeypnBTVQvegk3MPK+bb7kdLYgs0ZnO/vZGPGXerV8c/drJaZReln7QRPv/WiOxOQmAn3fZx3awhz9odib+nYzJM6Kpu0ogsnKp3JRtF/D+7iGvmVZVvxucO3RjSOp7w3NixH/WnAX4W1B1+OLv9V6wf7QeKHfEfgUfm7vqynErSRLS/DYxAKuf0g66Ng20f2tYfI6o5IVZv5t+dIM4Im577lRkL3fykkBa6ke3NxqKduNNMyFUoTrjyJ7KVUFcxMH1BWdZBB3O5xFvbuK7g1YofzRDJ2VJTl9KeykkxJXSl7aXBJ+CTHx9xHu7keAChK22/dSZrowYa/tUgEA5PKe2icZNKc0auR0tEkeyig4h07ECQxGWwAMhH7qRu9+PsEEJX4m/NPYMXbK/FET8+iNBV+WZM6GrHkNbx6ucOMvZHCt1c3e5HsOc7yvXD2Y4f7O+pj0K3PVJf+mlnYPqCck4/6NqoCR5l5hBxLvfTU3w9MmD+azz20x5otUcmQjdxclUldHMnXw8gdEdHS2xLKxekgw5mq/5O8Hbbw1rxo1lIDih0c/ZUToqy0G1FQ5j2MNjGkxK6uTtZtbZOCN2cXTRukhC67hadxk45IWRf35Xzz1jjM0I3y2RfoSukdBw6ont0oZvzzVMJXY1PqZ24zvUP7J/7MMrMO/bcVhzRrM8jNYdTletH14NOpA1NeYv1QRC61h33WnLic8o5/aBrY0bohtfp5SK6yjkGobuXq3zKlw+SupAbbPsI3YNekq3LEzzoYPa9wmEhD8yx+cBpW+rqyvlD1R3lpJiK0DuidugC0jLNvCf3peHQHTo5QERX1f59hG4uLWXg1BNpr8NLekaduiD1VbkIBV2Jv6fy1dj8oRWr0tylfVdrlpQ97HMBfr2aeVXlm0NTF/wxpOyoyqeUZQ2N6Krr7v3tqTiS7N6Tq1s/nB4o+YfLhPtDTfa8226hZ1ONtCijc3oulaOpQBOZldqSZKObQ8TUhZweGZq60HywDN5xHML/BM/OOKJb0A1ySGsHa69FyeXohu/XFtsVB4L+FgeC4r/oI0wayQnfT1Mo2rn5a7YDLzKsRWS6rEMKXf/qLXFgWu3pt6OGRgGUtszVFckpduypFbqJxaXPd+q3hYdPJEKEqGx/e21RG1Gxtg81UQI3IiNEw2KCL/ghlefCR78UPlr+9JZW6EaEncYu2snS2oL1b3zwTx+n7ZSJnlkn2LvdjMFbubkPkfCHOxxfjQkirVgNFrn21P0BUxfaNlr+I84DY4SuUHbtJrZvJj6kVGNI6XiN3x1m7A+MQg+o20418+ek7PpR8Lr+s+2v6hsrAv3xbo3Z4IYAf0w9F3f8finu+B30i3/+zoV1u4RV/iHXxv5mCWut6+bv5paMzBwip/dk5oSowG7XE1sfKA7pKt3/3I/NW+hWotS7Csi/nin3E8BiHpjlLJrIQy2PnaunwpOdnquMvJJKzG1K9LleF0b+ZADa/cYAACAASURBVKjAxp08vetqynY87MyNvWU2YISkbNnmf3aXucTqytlTK3Qj9vTbuLi7M8vH4uqPUXcWhtf9hDd5uNfXuPxzQkojdEPf7Uw24io5h49wU4nrDgPz1Ouv0PonjAvuu4J7l9LmLZh5OyXYWQtz1d6iH3fLR/M4+JekMpHgnK/685tzdZxl20R0yZ8vVhW336a7SWVk1M61o2IeGCV0Nb6Z2THIzmH6CSrvU/qy3Kup0rnwtdu761x03ul8Vw42JNcP3+8r1x94MKxB4Ld39fRmlvfFVYj2QTOhvvL14UGDdo3r58qy3Q+7GyeqfVihWy2swfV9XdsVc4gY1c7NCZpIsp3nO1JnDPDkkzw6e6F7EspUAgEITIPAQYTZNLpCKyAAgfkSOGj6xoVjROheuIHpHgQgYBFA6OIOEIDABRDQ5elfQEcP0AWE7gEgUgQEIPBJCCB0P4mhaCYEICASsNITRqVpzBArQneGRqfLEIAABCAAAQhAYA4EELpzsDJ9hAAEIAABCEAAAjMkgNCdodHpMgQgAAEIQAACEJgDAYTuHKxMHyEAAQhAAAIQgMAMCSB0Z2h0ugwBCEAAAhCAAATmQAChOwcr00cIQAACEIAABCAwQwII3RkanS5DAAIQgAAEIACBORBA6M7ByvQRAhCAAAQgAAEIzJAAQneGRqfLEIAABCAAAQhAYA4EELpzsDJ9hAAEIAABCEAAAjMkgNCdodHpMgQgAAEIQAACEJgDAYTuHKxMHyEAAQhAAAIQgMAMCSB0Z2h0ugwBCEAAAhCAAATmQAChOwcr00cIQAACEIAABCAwQwII3RkanS5DAAIQgAAEIACBORBA6M7ByvQRAhCAAAQgAAEIzJAAQneGRqfLEIAABCAAAQhAYA4EELpzsDJ9hAAEIAABCEAAAjMkgNC9IKPvNtfm5vHDLO7ezPt2me7ZbmOubx7N8umfefl+QRDoCgQgAAEIQAACEGgIIHQP5AqlyNx8fT+faKyE62/z7e3d+BpXbNvz2lzdvupE8YEYUQwEIAABCEAAAhA4JQGE7kFo78zm+sY8Lp/MvzOFR3fPz8Z8/27COO7523YQxBQCAQhAAAIQgAAEBhJA6FbAns366t4shWiojqdGTJZ13BqTTRUoy9qYr+8vxs4oeF5fmz/bMFrbtq9KW9g9CEJb0za/l0Vb18a8xER7FQ0uu+K2UceKpyAAAQhAAAIQgMBpCMxa6LY5rS7qhbmzBO/z+src7u7M2/u2j5ZWQm9XP2fqXNcPp5BVLwKbXFj378ZNGWiE42r1al5frYJWT+ZteV/l3Xb/Ley21OLZfqV6rniviiyLdTdtk3J0m3QGpytWfRpep3FbaoEABCAAAQhAAAJ5ArMWuiGeWjjurMNcWaFb5QrEoqbNvxtXKNeC0fSCuhWYoqi0RHPz3CoRFa7LXlrR1kjbAqHbiOZWJDdwnjcb82VbiPzm+aLR1kE3uX95t+MJCEAAAhCAAAQgcHwCCF2HcSgK9xK6sZsNfNFoR4jbJFvxXUX6Q1CWUuhmbmEIBXQNLhDtx/dZaoAABCAAAQhAAAIqAghdabveimruJXQlAVuZxYsc7yV0GyHr5EbY6RdKoRtta+1HIof6D30aR+ZGM5VH8hAEIAABCEAAAhA4EIFZC90257RPBThwRPfoQrdJN7DzdsdGdBG6BxpSFAMBCEAAAhCAwFQIzFjoSpFOndANt+uVUdPW6n6u7diIrvTeWKE7MnWhivS+WnnEU/Fs2gEBCEAAAhCAwOwJIHStg2LdrQJW6oIf9e1vHlDcztAeUvuwn9VEYQu/1OToBofT2lsYFG0Lym9TILzDb/fL+saJ9gaHIHrs/uhELXzd+mc/ygAAAQhAAAIQgMBZCMxY6PZisktvLUTc3fLRPBr7hx/8HNhCCL4tzb3/K2ROrq8d4RRyaJ0rwop2jI3oVq+WwrL3ndXdndk9er+QJrUtIaTdG86snwgWrivzf24YoXuWcUylEIAABCAAAQgIBOYtdHEJCEAAAhCAAAQgAIGLJYDQvVjT0jEIQAACEIAABCAwbwII3Xnbn95DAAIQgAAEIACBiyWA0L1Y09IxCEAAAhCAAAQgMG8CCN1525/eQwACEIAABCAAgYslgNC9WNPSMQhAAAIQgAAEIDBvAgjdeduf3kMAAhCAAAQgAIGLJYDQvVjT0jEIQAACEIAABCAwbwII3Xnbn95DAAIQgAAEIACBiyWA0L1Y09IxCEAAAhCAAAQgMG8CCN1525/eQwACEIAABCAAgYslgNC9WNPSMQhAAAIQgAAEIDBvAgjdeduf3kMAAhCAAAQgAIGLJYDQvVjT0jEIQAACEIAABCAwbwII3Xnbn95DAAIQgAAEIACBiyWA0L1Y09IxCEAAAhCAAAQgMG8CCN1525/eQwACEIAABCAAgYslgNC9WNPSMQhAAAIQgAAEIDBvAgjdeduf3kMAAhCAAAQgAIGLJYDQvVjT0jEIQAACEIAABCAwbwII3Xnbn95DAAIQgAAEIACBiyWA0L1Y09IxCEAAAhCAAAQgMG8CCN1525/eQwACEIAABCAAgYslgNC1TbvbmOvNV/P+8v08Bn9em6vbnbl7ezfbZawJO7O5vjGPyyfz70ztfF5fmdvdnXl735poM49JUMVpRANK+988muXTP3MmtCMaPfIVJcOz23pk93gNAhCAAAQgUBJA6JpGOH74DrHICM7DO9Buc21uHj/MKim0ELo6TiPsU4m/V7O4ezPv8S+NEQWXrzyb9fUfsz3Xx4HfapXQbcfGyjz9ezH6z7+J9XWkxXgNAhCAAAQ+P4GZC912IQ9FbSmmNl/fJxjZQ+h+ymGnEpYn7Nkx23PMsk+IiKogAAEIQODzE5i30B0cwatF5u9v+YhfTihXUcndgzL9oKx3bcxLmdKQErpFJO3q3iyTqQ/G7DZr8/PHi5ceUZe7e8hv26e2s6t+/f6WSGvQtbEdWsM5bczX9yHRR90g1rYjaneF+Cu53i/jvqVtQ9ejqk4jR2O99pR1//ovb3ubVrS9ir4e2k90VuQpCEAAAhCYG4FJCt1KSL02plgcLxe0rkezLVuKs1vTNqlzkpWVJ1vld/42y5Uxr692HoRXfiOue0ezosmCQHBYVC8tzGLxYT6cHF2pfW6UuirHrMzq9bXpR9OuoD11y1LpE5LQDdtZlWKJLCFFxObnj7xBnCL2KWlVaQhGzGuuUyCWfRuFHN02TcJp3kC7S2zs9Ijc302KhTBjiW0u/MbJ/W58rfIlJ23H9Vetrdv+5Pqyt58M/jid25ROfyEAAQhAwCYwOaErLoRHEbuN8DJ5IS0K4mbB7QRhI5KKDNtAOBUKo8v5rAVn5CCZL3RTwssSW1ExYh0Ya7nm80/zqRFBfT6LysMa8dm2s/kQ+JaJNrfOOYRTIFibuncdd7lPWaErHU7z/01p91qsCgcNpX8Xoq1Rn/Hns6Y9ts8VMfxa6Nu+3opne2y1fUn5lqK96b6+eh9RA/0EocsKBgEIQAACAwhMS+h2oiHsQfqA1oAed49qhW69EPeiqZNidZTXEXL+iX1fYGUO93giIhRwZd1+mXX7CnXt5hN729ZDTs/nnvX/Hnve+UAYJFBGcHLSJfwUk3FCV95e98oWb2oQ6osIXVnQ2zYddiBM9pkyXaWMXps+qptqj/+B5P/v4EPN80Fl2c5HTbuzMshPxox73oEABCAAgTkRQOjmIrrRK6c8MaMVPG2ks/IyKa2hj/rJAlKuN7g0oiq/365OilfpAyMRRXfLikeAfdFlb6nnI8t2OkKaUxBBDGwxTujK2+zN9DDoA6cMcEsR3diNH3UdPaMEC2+2itrZrz8iRn2bibaWna1vb6qvwrV4+/nJnKZr+goBCEAAAkMJTEvoVnrAys9te3OU1AUhyiXRO7jQ7eJYXd5vF62WtqyD+2o1AjvsSFoAuVdqDYvo6oVu26pO8Krs2ou8GKcwh7X8hrDTQ/YQurn7grUfOAPFnzyQBRYHFrp+mo72o8ZpxsC+pqPQhapW+cnQqY/nIQABCEBgDgQmJ3RL6I7YPeYiJ+QkChJRTl3wcyG1gsepwBNgqtQFL6cxyEeNSKTIjzxo8nv9EnWpC5nUEMXJ/L7eNKeyPanbCsJ0j7rkIPfas2FMgLkmlH5kYmDqQk5Mp3zGM06szUFflWJUZ+tAbYv5yMkditjOyiA/mcOUTR8hAAEIQGAIgUkK3SEd2PfZTlQLh3LaAz3tM32esJA3qRK6/kX6Xv5v5DDaRxedtLaw/QNDr/5dwEUbN3/Ndltf86/Ko60frH40IRVFix1Gs6Oo/o86+NdupUXkME7ZmxE6UeulclTXaISHB7tfRot9CD1vzObLtr6eTWX32HM9bz+VY7fZmL/bbfEjDRkW/gBo22z7s5T32trZSm+RfogjZut4e/N93ctPyOHdd8rjfQhAAAKzIjB7oVtaWy+UbN/w8kZVgkfIyQwEiXcyvxMkdd2lwHjY3QQ3N+RSPuLpCP7VXCtzd7czj4m7cMWyvHZWEtI+IJf7uzPsBnKSUj4qEWuLf6+fJfeHnbmx75lN3LLgp6X6t224PxsspUq4fXKEosCmb3uGhTRdCTnXQU50e1jxyZjb7i4/Oy+4Llhra5f1sL4O8hOE7qwWKDoLAQhAYF8CCN19CfL+mQmkb8UIbqM4c2s/W/W5fO3P1h/aCwEIQAAC8yKA0J2XvS+wt7LQDa7TusCeH79L8YOGx6+bGiAAAQhAAAL7E0Do7s+QEs5NQNz6T/+627mbPPX6+3QeP/d76i2nfRCAAAQgAIGeAEIXb4AABCAAAQhAAAIQuEgCCN2LNCudggAEIAABCEAAAhBA6OIDEIAABCAAAQhAAAIXSQChe5FmpVMQgAAEIAABCEAAAghdfAACEIAABCAAAQhA4CIJIHQv0qx0CgIQgAAEIAABCEAAoYsPQAACEIAABCAAAQhcJAGE7kWalU5BAAIQgAAEIAABCCB08QEIQAACEIAABCAAgYskgNC9SLPSKQhAAAIQgAAEIAABhC4+AAEIQAACEIAABCBwkQQQuhdpVjoFAQhAAAIQgAAEIIDQxQcgAAEIQAACEIAABC6SAEL3Is1KpyAAAQhAAAIQgAAEELr4AAQgAAEIQAACEIDARRJA6F6kWekUBCAAAQhAAAIQgABCFx+AAAQgAAEIQAACELhIAgjdizQrnYIABCAAAQhAAAIQQOjOxAee19fmz/bdbJdWh3cbc33zaJZP/8zL9+Lf/f89EzZ0EwIQgAAEIACByySA0L1Mu9a9el6bq9vXsIerJ/OvVLa+sG2eX9y9mXdHER8G0m5zbTZf32tRzX8QgAAEIAABCEDgyAQQukcGfLbiW5HbitquIc9mff3HbN+3ZnnSCO7ObK5vzOOyEdlnA0PFEIAABCAAAQjMhQBC9yIt3YjKj5V5+vdiogHUIUK3enZnHlLllSzL5zZfzXsQts0L3TLie7N7qKPN/AcBCEAAAhCAAAT2JIDQ3RPg4NcbcfnRvbgwd29e7uzgQr0XmjqKgtMpCJoc3aC9ZV22gK4F7O/lypjXV9P3q3jKy/21/2aXUQncR/evxcsI3n39gPchAAEIQAACMyeA0D2lA1TpBMaLshapBPU/Hi53tUlb6IRmrI9ZoStFYf1/a6PHlrA1zb+ZO/NWpkhU9UciulJUeUik+ZT2oy4IQAACEIAABD4VAYTuycxVCtpf5j9x6z/1txENPJTQrQTnb/PNizhXEdjf3xoRKwvYOkq7tER94rmurLavTZT423EOxY0gyisQgAAEIAABCHxCAgjdUxktmrtaN0C8/mts2w4ldGO3NlTtatMX9hO6z+srI10MUVdB+sJYF+A9CEAAAhCAAASMQeieygtOKXRNnQ7xmhOKudSFSujuMjnEBxC6OzvF4VQGoR4IQAACEIAABC6dAEL3ZBY+YepCFSEuI6WZg245oavKld1P6IYpDiczCBVBAAIQgAAEIHDhBBC6pzRwGSH99Z93m0AtFHcPBzyMVvbJui3BPpRWC+Am7SAndNsDZME1Zc9ms/littWPSmiFbiO+/eht204/+vy8MZsv2+aX3JTXpZ3SltQFAQhAAAIQgMDkCSB0T2wi6Sqt7O0Io9vYpDA471tR3qzQrRRz/UMP3u1fff6sXui6v9RmXVEmXmEm3OKQuxd4NCdehAAEIAABCEDgEgkgdC/RqvQJAhCAAAQgAAEIQIDDaPgABCAAAQhAAAIQgMBlEiCie5l2pVcQgAAEIAABCEBg9gQQurN3AQBAAAIQgAAEIACByySA0L1Mu9IrCEAAAhCAAAQgMHsCCN3ZuwAAIAABCEAAAhCAwGUSQOhepl3pFQQgAAEIQAACEJg9AYTu7F0AABCAAAQgAAEIQOAyCSB0L9Ou9AoCEIAABCAAAQjMngBCd/YuAAAIQAACEIAABCBwmQQQupdpV3oFAQhAAAIQgAAEZk8AoTt7FwAABCAAAQhAAAIQuEwCCN3LtCu9ggAEIAABCEAAArMngNCdvQsAAAIQgAAEIAABCFwmAYTuZdqVXkEAAhCAAAQgAIHZE0Dozt4FAAABCEAAAhCAAAQukwBC9zLtSq8gAAEIQAACEIDA7AkgdGfvAgCAAAQgAAEIQAACl0kAoXuZdqVXEIAABCAAAQhAYPYEELqzdwEAQAACEIAABCAAgcskgNC9TLvSKwhAAAIQgAAEIDB7AgjdmbjA8/ra/Nm+m+1yWId3m2tz87g0T/9ezPdhr/J0jsDz2lzdvhqzejL/XnJ0d2ZzfWMel5pncxXzdwhAAAIQgMA8CCB0L9nOrZDy+6gSVvVLz+src/u6MHdvw0XyUdDuNub65tF8FIWvnv6ZrD6MNaIsZ/PVvI8uYN/ePZv11a0pviCCPpQfF5uv796/18+/Lu7M2/vWDPxe2bexvA8BCEAAAhD4lAQQup/SbIpGR6OFhWC6/mO2n1QsVRHm30uzMq/mdY/o5tkj1c/P5vn7dyFKTuRW4d08AgEIQAACEFARQOiqMH22hxqx9LFSphzUz+8ehkVIK7G4e8hsuxfCem3MSxA5jUc047Trdv7+9mZezHqvlIq80O3res/ke0hpIXJU1upZ+SFyvxSis2OEbvHO+qf58RKJ9FYfPWXwmPSTzzaSaS8EIAABCOxHAKG7H7/hb1tb7/XLR0gLaOoo8g1MUqRFUhvslABJENb/ViYPWP/Z6RBV/b/NcmXM62v93KJtS9D/hkKureVjVXt3dRqFqVMYlv7Wv/1Mt79fi+pdVYepc12D5rciv0kR8C2b6V/TSfP2sDM3Zd5t95/9sdF+gHiFt+kIIpv2fUEAJ583RrTTMfxt+CjgDQhAAAIQgMBJCCB0T4K5qUSMrI2JbGYa3QjY4TmsoZgKhG4jrhyB6f9bJ8D8iHJTvnHzTOs6TDYPuMoX3rXvRiKfWaFbq99YRLfOSfba7fOU+td9NFgfLpoPjqC9sYiu/+8xlhvzd7s138W65XdOOQSoCwIQgAAEIHBKAgjdk9EuBe0v85+4fZz624gGjha6zeGzTkyGgrDOkf3mbbl72/ySGK7VpRyF1QhCY0dlE2J1L6Eb1lHTb6K8bVRX7If0riL9IShLK3Rjba1bHBPy2o+KEV7HKxCAAAQgAIHJEUDonsokmVP+Y6//Eps/ROhK29/WyX5fMNURzwi0pBAs9aKVeuBcG5AWbbXWFN6VBPI+QjcmxI0nPvcUuhLDPvquFLrRtjbS3Il+W/aK2uBUA4F6IAABCEAAAqcjgNA9FetTCl0/AhnrYyOIu/zZSk/a6QFhZND/u1h0TITtIXSTAtu+cmvSQlc4JDg2oovQPdXIpR4IQAACEPjEBBC6JzPeCVMXWsGauf9WEq05oZu/raCofGjqQjYCHY/4Blvxysiv3I9IPX7keGxEV5Pf7EePO//0I73jUhfEHOSTjQEqggAEIAABCJyWAEL3lLxLEfbrP+86rnFXe2WbbaUk2IfSbKFTJA27B6/aA1WJ1IVWxH74PzrxvDGbL9v6l9dyKQAf9k0T+R9CSOaVRkRo1z6Lgx25jqVRtJHjIJXAvqptT6Hb34bR38IQ2MjKk65tHaY0BD/mUbVrZx7KPPC230G0+7W/AaMsVojqZ32LByAAAQhAAAKfhABC98SGkq58Gn47grbR0lVZgsjsiluZu7udebQOm4mRTymvtyij60dyW124Yiv5a1+5mwLCdACf8erpzSzv6/t3++vWXDbhx4DN2LuFYazQrb4B3KvZFnd3ZvlYXDlhX5PmXPuWuF6sFb/WVWmOmBfs5PwdoasdSDwHAQhAAAKflABC95Ma7lTNVqUqnKox1AMBCEAAAhCAAAQGEEDoDoA1x0dVh8/mCIY+QwACEIAABCAweQII3cmb6EwNtLbPj5dacaa+US0EIAABCEAAArMggNCdhZnpJAQgAAEIQAACEJgfAYTu/GxOjyEAAQhAAAIQgMAsCCB0Z2FmOgkBCEAAAhCAAATmRwChOz+b02MIQAACEIAABCAwCwII3VmYmU5CAAIQgAAEIACB+RFA6M7P5vQYAhCAAAQgAAEIzIIAQncWZqaTEIAABCAAAQhAYH4EELrzszk9hgAEIAABCEAAArMggNCdhZnpJAQgAAEIQAACEJgfAYTu/GxOjyEAAQhAAAIQgMAsCCB0Z2FmOgkBCEAAAhCAAATmRwChOz+b02MIQAACEIAABCAwCwII3VmYmU5CAAIQgAAEIACB+RFA6M7P5vQYAhCAAAQgAAEIzIIAQncWZqaTEIAABCAAAQhAYH4EELrzszk9hgAEIAABCEAAArMggNCdhZnpJAQgAAEIQAACEJgfAYTu/GxOjyEAAQhAAAIQgMAsCCB0Z2FmOgkBCEAAAhCAAATmRwChe+E2322uzc3vb+btfWuWJ+vrzmyub8zj8sn8e/ker/V5ba5ud+bu7d1sT9Y4Zdu8Vj+vr8zt7i7O8Sx9OZlBqQgCEIAABCDwKQkgdD+l2fKNrgTu44f74CIh1PJFDnji2ayvbs1rrr6ziEOE7gBD8igEIAABCEDgUxNA6H5q80Uav9uY65tHU4RKzbsVKt3tdma5PFnoNE8WoZtnxBMQgAAEIAABCIwmgNAdjW7CL1YC8tWsnv6ZVOZA3YMy+npvlrn0gUI8r3/+MC/75hiUbfv1X53SkBK61d+Mefr3YhLJD2a3WZufP14yqQ9lFHdtzEuZIpGK6MZZDE1dKJ//9V+Cf9m/+2U2paSMzG++vifsWPRn/dP8eImlptTR9QKkwhcm7NM0DQIQgAAEIDCCAEJ3BLS9XmmirX1SweLwOaptHcnUgSa9wOmM15ZGbK5Wr+b1tX5w9X93Zve/MFpci9ZWXAtiMui3MYvFwnwUIOwcXTHlwrjtqkSnWZlV0ai6WauoIK6ebdpe92BR1PthPpz84TwLrdCtynYyRuy2NVy8jBJj26ni9NssV6Zgbj/o9VHg6XAQ/1703ovy7+XLvAwBCEAAAhCYOAGE7ikNJEYpjxNxswWjJG4k4Rb8WyNeHSFWxoCFg1nuv4VCN3ynFZeWiBVTLpqyTJ9f3IrXrGhrylta0cyOy6o/KJfvj9xnx3UkVq3YtOoK3M2PancC1RK2AZeQSVnubrMxf7fbIgIe+3uZt+1+WJzS/akLAhCAAAQgcGoCCN2TES+F3S/zn7gVn/rbPg10I5V9KkNEXPtCPJZaEKRG1OXtumihL3T9vzd98sqvRegyiM7W/94LtGx0tSleLk9uW7C177HI1hlhlX3PF+OCOC8krHeLRYRn6ypiGZUSFnO39/Ew3oUABCAAAQhMmQBC91TWKUXG5qt5jyTNPq+vzZ/tsa7Z8qKnphY8/g56jcKKsEZzaJvy2khl8JwnzGLCy3svKgq1z3m2lMuT25ZjkRWsEVaS2A7TKYqkgzbqrBG6MZ5t/zN26z9ITuX81AMBCEAAAhA4DwGE7qm4n1XoetG8Hz8roWtv6YsYEofFbAFXhHOLnFn7ztzPJ3RzLMYK3VrUtmkIbY5umJbQ1Y/QPdWIpB4IQAACEJgBAYTuyYx8jtQFq3OOgMpsfWcjg71wXj49GXPrn+rXbbX7KQmx1AVXLCryZZv2y+V50ejq1gk77UJ2iHFCVyH4T5m6MOg2jpMNDCqCAAQgAAEIHI0AQvdoaIWC7au1uj/XYmj3cLjrn8JfQ2tTF/pIYi0e/RsfirZs/prttrnQK3nPrX2DgH/rQeQwmlVff1guPIz2Yd9C0Igz++BZVnS2bIPDYFbOsn8YLcMiW2d7GM1K/Wj76Kcl9Pcb9wwHpS4U/QvsV/V1Zx6qHPC2XNu+wo94aA7LnXJ8UBcEIAABCEDgwAQQugcGmitOuj5Ld99trmT779J1WeEVXFKuqHPDQuYHHaQbDOpWSHfV+ldrFe15W5r74iqtb/YdvtI1ZN6VWFnR6aCorz1r/ysF88Puxku1aIWjx9gS3Nk628NrVYDbrc/50Q7vF+sWd3dm+VictBuSo2sztpKL3VsohKvM/OvmELpDBhXPQgACEIDAJySA0P2ERqPJEIAABCAAAQhAAAJ5AgjdPCOegAAEIAABCEAAAhD4hAQQup/QaDQZAhCAAAQgAAEIQCBPAKGbZ8QTEIAABCAAAQhAAAKfkABC9xMajSZDAAIQgAAEIAABCOQJIHTzjHgCAhCAAAQgAAEIQOATEkDofkKj0WQIQAACEIAABCAAgTwBhG6eEU9AAAIQgAAEIAABCHxCAgjdT2g0mgwBCEAAAhCAAAQgkCeA0M0z4gkIQAACEIAABCAAgU9IAKH7CY1GkyEAAQhAAAIQgAAE8gQQunlGPAEBCEAAAhCAAAQg8AkJIHQ/odFoMgQgAAEIQAACEIBAngBCN8+IJyAAAQhAAAIQgAAEPiEBhO4nNBpNhgAEp/Ax/AAAIABJREFUIAABCEAAAhDIE0Do5hnxBAQgAAEIQAACEIDAJySA0P2ERqPJEIAABCAAAQhAAAJ5AgjdPCOegAAEIAABCEAAAhD4hAQQup/QaDQZAhCAAAQgAAEIQCBPAKGbZ8QTEIAABCAAAQhAAAKfkABC9xMajSZDAAIQgAAEIAABCOQJIHTzjHgCAhCAAAQgAAEIQOATEkDo2kbbbcz15qt5f/k+OVPuNtfm5nFpnv69mOm1rsH1vDZXtztz9/ZutsvJIbzsBh2Cfen/N49m+fTP1ENgZzbXN+Zx+WT+TXBMjDLoITiNqnj/l+o54MOsOvsMLfOT2jPwy6H9nufzz+src7u7M2/vW8N0rPCBTzw3KHo360cQuu1i/uH7wWJSgg2hO71x+ry+Nn+2ExH1h5ikA0HxbNZXt+Z1cZzFsvTpzdf3RlSfyL6H4HSipjrVVLb5bb7t9RH5SYVuZbNXs7h7M+98Qau9D6GrRlU9uP+H5LD6ePp0BGYudJuJ/yMUtWdZhBN2R+ieblDoaqpF4G4qi+8hBNxJI2dnEl2H4KRzkIM+tXt+Nub79z0jc2diflASFKYlgNDVkuK5Sycwb6F7lEhBvZjsHtrt37gL5SKCpbhdm5cqipEUulU/zIi0hlKs3ZtlJEpU1bl70G9bJ0TE4LLccFbBdGO+vrtpGzl+usGbZtB96QccNEK3eGZtzIu37T+eRcK3Bgs4oW1DhG717M485FJpoulACtGlrUMwdLnI3y+FCOBgTlWoR0hpKvhd/zHbxLaw2s5HTZkqOZdOWO48JJjvwdqo559yzPwy/yV9Rh4z0bE8pO6MvSo7J306P1eI7SzaWM7jcvZPbZPf3/LR6qHBl5jQzfplyfR+OTjloSr397f8eyXnyiXjKRXZNlag95hfkzYJrajuW9mmfeeFMfwPPIdE50/dojq5pyYpdKsB+tqwOtK2aTVMqnpWWYEoThj+gtmIZt/CTj5dMymvVq/mte1f+YLfR6GsxWJhPj7cHN12q8WtU5Ny0UayrTdXfR6mWK719/Si4+bo7leWMQGroh1vy/sqV7H7z+YnijVpgW+25Z3OeOwCOzR//1tvpbqvNtv7zRbzcmUKG9dtbLdc92Ph1VeUG/qWIj9a8tOWnyZHt3nGzfSxx1CzcNcAjP1c195cGbm/J6ZRZ+7ophBLRCiFblWOWZlV0Qeb/OrpzSzvi7xlx/1ckZK3s4JRPUEJOe+aD6y64yGLhVksPsyHnXO9B2vN/BPjWDiv+wE9yC/7bebU3BerO0iByDJIz5cxd0z7ojT/VIO65yLMJXVd+TWrs3+Xo6ut71EeswPHnNvGuL/7tsiOnej8+rdOswoXYMfPkjYRxpv0vM9f62e6vg3kL/juYlXOvTsrzUn+wJWCZ9n5M+EHU/7T5ISu6FhHEbuN8U0+/1AldAMrC87VTuZ2f5p/60WL8F7nzNYE1/xbkUhs5a0p+5TK95OEojbS508Ue5dVTFsWq36isDj4/JRCV7Kp/2/1BBY7iBURHJKtSt/Yh4Xat3JCt1nsPJHxvNmYL9siupIVutKE6f9bLwoCn3bGWiy6qKkjMqVKwlD8IM1x6kVivxBbYsfiF3wsq+ysZLSP0BXa0Y2frv17sFbOP+18bguaMBdyoF/uUXcY3FAwSM2XcZVbfQy7BwefzWbzxWyLHToxyBKZy4rjh30wRuy73Ihc6oIvdPRRS6u+YP2qJHYtOn0/Kz4ObR41Ayu4oBk7sflVQBAIuUhbW5sEH5aqvklzhRBEU/RtDP/Qxu0HjR20UQpdzfw5ZTWbaNu0hK74Zd18w44+aRzrvVIUtpER//SqIjIUOKFm4YqISnFSEm5hqJ8z6YN0zQCWDnfIg025veb175BlVVYU2dQDu1gJ6q1BldD13mldxNkGbcVILHqSFrr9zQV14XuxEFxY51vei7kPlpzQjSz4bt+Uk2rsRgdVHYmFPfgw8WytGLfVUi2cWBfThxyf0dpZyUgzX0SmN7GtPvM9WMvlt5HWfv6RxZY3dgb65V51ix/j4SE/x6cT82V0dUnekhOLynsCUTWXxVf3nND1hV0gPBWiJlaHK+QjH7Ve/1RzZM5X7DZL61Hq5iLveV3f5LnCZ6vp23D+ET8K5g3dfCMHdiJrpcI3pvQIQveQEV1JqAfRWz+a5DlrZCH2J/foJKZcyO1tFFvwyls1jcvm0hekiSLccW+/XNK5v1I/DiV0Ex9URQjZ+kiwt/t8wTtM6O7F1RL5TspA1re8qSbnGzmhK20vd1W0fHSTavTqMlUd0hQqbC9bj3U+nmPQvDNW6OrsrGS0h9CV5wev3tGsI4t7/YXgpFvo25GIsnt+qZ37VDtxSgax+TK2mCdFZlSsefY5uNCVxogQ+asmmQEpcML1g+56Fdu9cedQ1dhJCt10/4YJ/1ib24+5Po1Q42eqvjk3QCn4x1iMErrK+XNK6nVAW6YldNtIii+OjpK6EEYfBk1avjMJX/26qNt5hG7b124Cbxj/3efuRdUip/TOEwhdP+qaiI10+V/91tsIoTv2TsvRvnUMoZvb9leKuFhEVylEQ1vFFybnWWX5ewndrJ2VjE4idHP2lEfFXmLT39rO2eToQlfPwJ8vY/fTTk/oNh/tqo/jXvSkr3TTisF0RLdNv8sKUeuDP5y78/3Llu/4obZvuohutm5nmCn5H0PoXtKd6RbTyQndOihwmsNo7Tb3RyZSGV/00lt0o4RuxHndraDwq7K1qf+cSlZaA/zHzz1+mGLoVlGqcQcVun7OmP5AT99Ef+IbJnRj260a+0j+p/Mtr/Tctl8uopt7v6pOKeKSqQv2j1ZoCNXPqBaTnKhqqhsrdHV2VjJKjAE3N1+Q/eLWuWZrXMc71k9//hFt4vtRzq+kLW5hC1pVt880V7eEQ+FDaT9Izx2dbQ8Z0ZXanOmHZjwlI/bdbmlENI5ZL9TirpoQnN2F7NhUBWrClEdNRDdbt+Bnef6yH4XpizJ/1XjRTQeTf2qSQveU1DpRLZzcbycc//BEv43Vby8EArPdEst+QfvOGuaG9sI/PJTwIRxsy12sXrbfvqjfGYTttn5wKnpjNl+26V88iywiwYfE84iyol/zfg6R/2VvpR8Eh4j87aGC/eZvcVikTPYt3nOuiYnYyf8Cjk3Ee3Ad71v+SBLyjkubtVcJ5YRut7UWpnF0BzrUQjcmTGO50f1Bnuj8IES+a7fZmL/FYbvqx94UIiUmmjU5utGPZ8fnlULX9xkr5SY3xsN2SONgD9ZtWzLzTzi/SnUO9MshdWfPVuQZJOfLmDMK471k0V5513IJDmx+hHO8G71U7lz4H37N2PB3pIqf4WhStcpy7SsclfW065xwa0/Yt6JR3XNCBFYzRyaFrn34TziUlbFJ7DCafROGrwWiH9iD18Jx/Gs/6tcxSZt0bbSeEzWFZv48pTg7YF2zF7r1Qlj/tKbznyP0/PyVYjJ6W5p755eK7HzOsqSVubvbmUf7XkH1VqRXVrmYPOzMjX9XrpBrml0Au8XezQ9xTgdHclizPz2aiED5Pzy3T1nuxC8ky7eTb2PQksnD7ia4QcHZOWiN3y3cQs6Sl0Lj+E30ii7Lq8Zybbd6u6K0viXNFL6fWiehs0K3Gi31zwKHBm1yrpUiLvDD8IqyeB2JGdCzff2k9UFzbKFbTyjVTynHfV7PyJ+b2uvNNPeu1gt3P87lcZCzZ4K1Yv5po1J3y0fz2DVFyj8c4pcyY3/u00Ta6t5lGAg+lZ2/xHnW/UAM5x/vA/KQEd2iPX59q7s7s3vsD+Jl2xNzhSyf1t/vzN2u8INuYAgHfXNjJxGBz/Wvan7QVv8GHy+NJds3XepC7WbpeWEcf0GbPBlzeyufBeqHYERT5ObPxHQw5T8hdKdsHdoGAQhA4BMTyG+/fuLO0XQlAWV0WFkaj2UIKD/m58QRoTsna9NXCEAAAickgNA9IezJVoXQPalpELoBboTuST2QyiAAAQjMhwBCdz62jvcUoXtSL0DoInRP6nBUBgEIQAACEIAABCBwNgJEdM+GnoohAAEIQAACEIAABI5JAKF7TLqUDQEIQAACEIAABCBwNgII3bOhp2IIQAACEIAABCAAgWMSQOgeky5lQwACEIAABCAAAQicjQBC92zoqRgCEIAABCAAAQhA4JgEELrHpEvZEIAABCAAAQhAAAJnI4DQPRt6KoYABCAAAQhAAAIQOCYBhO4x6VI2BCAAAQhAAAIQgMDZCCB0z4aeiiEAAQhAAAIQgAAEjkkAoXtMupQNAQhAAAIQgAAEIHA2Agjds6GnYghAAAIQgAAEIACBYxJA6B6TLmVDAAIQgAAEIAABCJyNAEL3bOipGAIQgAAEIAABCEDgmAQQusekS9kQgAAEIAABCEAAAmcjgNA9G3oqhgAEIAABCEAAAhA4JgGE7jHpUjYEIAABCEAAAhCAwNkIIHTPhp6KIQABCEAAAhCAAASOSQChe0y6qrJ3ZnN9Yx6XT+bfy3fVG+JDz2tzdbszd2/vZrssnthtzPXNo1k+/TP7FDu+QdN883l9ZW53d+btfWtKTCf9r7HJx+JM9Z+0s7HKDuTvx+7LhMbTOX32aHUzP+U92PfB/Bs8AQEICAQQumd3iwMt/BNamM+ONNGAoy3cik5XdZuhHzTPZn39x2zPIcwVfRr+yIH8fXjFw97wx1P1v1/N4u7NvFdfkqf773w+29jqY2We/r2YPT7DQ1hH5XkZY2a3uTY3jx9mRbDidIONmi6SAEL37GY90MKP0FVZ8myioYhgbf5uzXaoWri4qM6B/F1l7T0emhD3s/nsHvjO+uqEbHdWDlQOAQhUBBC6liOUC8qv//bf6q++xHcPiVSEcrFfG/NSphmkFv4iMnF1b5ZtOkLKaQcI3Xz78qNDV0bR/rKbudyJsu33y4HpBKmy49xc0VA+98v8l4pWVVzNASJaOVvWfrB78PxPsWiXfbpfDo80Hsrf8/Ufwd8tF91t1ubnj5c6Zcf5d804FJiXZSi450dJmUGUa0NRSvERtP75w7xEIsVxoTvSp8SGR/wv2snjRU1VzCps12bz9T1MzVLYLuez2jbUeDTsimfWP82Pl1jKlHKubO2hnpcUdqrSSHbmIToP5vxMMxJ4BgLnIzBvodtMFqvVq3l9tY3gbtWJC40wmbZbTY45V+5WdVWWU9fCLBYf5sPJ0S0nllvjPGYWff6t5C8KoZtsX5MzV1Tibs02W4z19pnUrqIxdh+rcn6b5coUTD+qlsrbve22qNeZXP5q0x7nreadQilWW33ufy632pYF84+CuWNy104iq5wNxHGct2XgE01//ga+4rIMfSnGumnYgf1dU/+x/L1OA1mZVTFw63HSj9nsOJR8qHJj6yMjM56kvvfjQDFOBFvEtqj9+UfjmzGfkpIuUs8Gc1+bZy74et1++cO9bvOy/2AUcnSzdhPmlroZve1zPpn7e/2BY8+8iXlX40ciL2t9ScxnS+0a481L4dioKQXzcK5tjYB3plR7rj9q+sn5RBE1Xx4BhG45qdniqh381oBWCV3pcIX/b6nJPVNfdvsyJ3QV7ZPqyNUbW8CKzLLhUdBsJKYREP7Hw2ZjvmylSEn9/M4S7+1CZ0/6QS6cKPqbBdwMO0iWZ1q3sYAlHxqMMZH+PcevXVQP4e+a+o/o75Idq+lZ4efhNC6Is9x4sgvJca+a5Qk9yRaR9SU3Bovws+fnGZ9y6kk/69cdE779odeRQldjt06YWXOLNFb3GDO1SByaR98C9fsuzxm7Yr76W8xX3xu7vcbms4gPusGIsA5pbNT/Zs/Jkp28f2s+LL7FdhQRupenCC+0Rwhd+6aCLvDlnszXCN1qIfv9zdt+ryeO39/qKGmw2NUrs3frQmThyW1VZRZmTfvaaEYfWQqFYjAOhgiC3CDKncTO/T0oP5zMZdHg9lO2UytWTDqyrhERti2FDyu3CO82DdtHgwV5nGjOipmyTs/OsiBw6z+mv8fEn8rPBT8MylP7tfzxlR0nCnHclpEXupJAeTQfnoASh1/G/0TfcPzO97lxQldlN3H8Kz5S1GNm/8N3Lq/M/Jmbzzwf0c5LmvWq/iD8bXwR69gBIZtbsfj7JyGA0BWErj+haCYOcSuzdYJmwZEXrMgiJTpQbhstfr2Ypn1tZKiLMIiLsZRyYLUrN3l7/ZLaFT1lrBEH0lZgLjrvfWxEhYWmfrt/iW3eYhuhF8x2m31xorZBX3H0ZoBI+4f7eyTtpGlCW/8x/T1mI52fVyHW6vo9J33FjnQrhW4YKfOie24Fns2t8ZpYMOLzj5vc5KQQpXzKryvxrF+3HJm2+zFO6KrstpfQ1flsNwdWjBS7Uik/ys2FuflE+riUrkbUPOfXJc2TnV/IaUDnuHHkk+gomjlxAgjdWETX2uZRC93M/axDFv7B999mFuZ8VKj2VHshK/ZDvW28Jno1QhCE40CInuy5MITX8QyL6LYC/9BCV23LbvHxc/h8QTTy5oLIwuqLtby/6+o/pr8nhW7unmQhUjUqohv1V8U4yYkca8DIYtO+diphD8mnYouS8GysbrsIVwDtIXRzdjuE0FXfV97nWac/vN0r5xxee85n4i7KQYWu7kOrXxeKr7bcGYqJCx6aN08CCN1A6OrEUS2q+m3s2LaSG+Dz8vSqP/pbn4p0AclXNakL9mGQmL93k/OTMbde7qi0OCsjX0F1mpw8/6XkwqHIOStpSz8Y4ZUbs2U8ehdVDkGOcHaa8fuYEqc5YSBG7vKiWWLk+7vmw0nmeBh/j9WvGYfSu8OFbk5cepzFiJpOaLht0/m5Y/qc4HInKeeHZqS6g5tB3MrEH8AJxo5yzOX7MTB1YdCYSX/Q5f3oNKkLwz9Uq4jG8B8UGvBxlp3neAACJySA0K1O2PbbyGFUsI1y9hGU/nRwuGUf5MU9F/enfinuT7V+rax/xjqd7W+vv/ppCsWku/lrtrGLWHOCM5aLZ7evcjx7i8/bumsiPn4ObxHTGP6LbMEhkr7e+AXpQhS4bFN1NdkP87P8hTnrsFhnp4BtafL2UFk8suz8gpmYr5bPz6wXoYQti3Kv/2z7my5ydmwnB7E9pa+2B12EWaSL2B3A3zX1Bz53OH+PCm2Fnweiq+UyYKciKag142SAaBCFbsrPcz5lu0bmWZ+zlGLgb2n7Pt+/Ex4i63Y7FHaTxZkgRmMiLuuz/lVcaaGq8aNg/Fdta6/ySs1nxeHayFyQm5fyOzL2PO+nZzwX68yXYp2pz5TY17fFDlSS0nBCxUZVowggdMuI7t3SPD72+W7hwPXzu4rJ4W1p7v1k/khOZnhtkVvXw+4mOOkrLSjJbSONQNK0r/rYb67pEg6z+O1a3d2Z3aN1qGFApMC/TmhRlLV8LMLkyV8CCq9u6vj6/SuEy93ysRC//Snqqv3F/34q/m9/i5CQ+yywil3PE1zJ5g3FpC2z9bi+57RBzLNT5HEfyt819XvPlO0/hL8nI8pZP/d9aFXMATvzaB8mzYyn3PjMjpPRQrePxnXpv76fZ33KctDMs3LqQntNWOyj2ONbfkA87MyNfR91YkfHvyDQH99uKlAiwt0UpB8zQh5vcqte4UfCFV3uPJKYzyQfUdhWJ3T9oIblE+28L4xvaS1D6I7SXrx0QgIIXSFH94T8qeozE6gWgkP8mMSJIAwQVydqEdV8JgKxj9jq38MT/J+pa7QVAhC4XAIIXYTu5Xr3UXtWR3/S+YpHbcDwwhG6w5nxRk8gInSH564DFQIQgMDpCCB0Ebqn87ZLqsnPbfwMfUPofgYrTbqN4q+XjfrFwEl3k8ZBAAIXRGDeQveCDElXIAABCEAAAhCAAARcAghdPAICEIAABCAAAQhA4CIJIHQv0qx0CgIQgAAEIAABCEAAoYsPQAACEIAABCAAAQhcJAGE7kWalU5BAAIQgAAEIAABCCB08QEIQAACEIAABCAAgYskgNC9SLPSKQhAAAIQgAAEIAABhC4+AAEIQAACEIAABCBwkQQQuhdpVjoFAQhAAAIQgAAEIIDQxQcgAAEIQAACEIAABC6SAEL3Is1KpyAAAQhAAAIQgAAEELr4AAQgAAEIQAACEIDARRJA6F6kWekUBCAAAQhAAAIQgABCFx+AAAQgAAEIQAACELhIAgjdizQrnYIABCAAAQhAAAIQQOjiAxCAAAQgAAEIQAACF0kAoXuRZqVTEIAABCAAAQhAAAIIXXwAAhCAAAQgAAEIQOAiCSB0L9Ksx+7Us1lf3Zrd3Zt53y6ryp7XV+Z2d2fe3rem/pe5/rczm+sb87h8Mv9evs8Vwgn7fXzeOt8Ox8QJIVAVBCAAAQhECCB0L9Q1qsX5Nezc6umf2V9/+Yt6IzY+Vubp34uZt7w7vvCaiss+r6/Nn+27ab51ztSs4/NG6J7JtFQLAQhA4AAEELoHgDjFIsLF+ZBilOhV3ObHF17T8Lep+MDxeSN0p+FxtAICEIDAGAII3THUPsE74uL8vDZXRZhXiuqWz98v+1SEsIulsPll/qsitsNEzm6zNj9/vGQjf4eMEO421+Zm9zAgfaDs071ZvkUilLuNub7ZmYdsxDolvDJ1RP2qLHNjvr670fJD8crZXmap8IGC2frnD/Pih3zVLC0g0Xf0QjftE3HbxIWudkzUrIrtjgPspnyCyYcmQgACEJgQAYTuqY1RLdiP5qOrd2HuYuJqj7Zpha6U4rCwcm+NaSPBVmMWC7P4KHqQyNGtyjUrs3p9NXUGRTytIWxD8d6qfK/Nc5XFTCVcHpdOukT9bz3duupUvqzQP/v5wF7pvnS8nBzdWui4mSQZu1cfJUXTSw72i0Xb3pb3bh8XVm50096lI6pkflnbNx9GveWbNv+tP5ic/9o2CO3uPqwGsyxqyL6jELqxfhTJ5KK/GNc28d2R9JiQ226MO772GOS8CgEIQAACWQII3SyiAz7QiAA3j/U40R5J6NbCxhKcVXt2rtD2/014phVI9oLt1yc9I5IUhFknPjrBqRS6ksgThZ/Vkurvv8038WNDqjcnrMK/R22ROrzXijNLxPaizLehFaXXCl2F7euPldhHQiSiK7S7pn0YlmE5OXs0ByWj/fC9UnHQUjUmmnYZ94BmbcPyG/Hcuc0HnNcoCgIQgMCECSB0T2Yce5tTWlzbtIDDNEhzGE0WMq7wlrdt82JAl9fYRtTcqKxWzPgR3ep///7m3fxQC47f3yJpGY0wE6NsEREs19PazRdekQ8Z8aPHsr0kREUR65WvFLp52+dyulNC1/t4qnSu/EGRZKl6Jyd0c/3wx1v+Q0U1JmIfWM2/27shhxnxlAIBCEAAAhIBhO6p/KJc4DZfzXvkyoND5Vu23QmEbrB9L2zZWyxq4WciV2UdTujKosEXG7qIbkzcV91KpC/Y29eO4A22vG1niaVieG0Vt97bchLpC0cVuhrbl5fE2SkXfn8HCt0xLFXv5IRuyTrVj/LPQiqG5S+uj8bq83hI9qvMrshtPtWcRD0QgAAEZkAAoXsqI59D6CbvtdUIBOWiXmkF9x5dbUT34EJ3j7t8O8Hr5JsK0cmkz8hC182ZVTjdKYSu+q7fXij2BxnHCN2BLKNi0ean8ePu86/LlW770dq871cuoqscEwhdhZPzCAQgAIHjE0DoHp9xU8MZUhcyok8jRsVnhO3XsUJXOlDWReAyObp+zrFc1kAD2wLF1AcHh4lUOXXB/nENVYsOKnQboRqNUmpapOxXTODlcqWlJqjeGSJ0y0rs578IOxY5oRv5cRR/TMTanrj5RGMFnoEABCAAgWEEELrDeO33dLnI/frPu/KqXlh3D4e9ekgjYtstWz8/dbfZmL/bbf3DD34Oq7UVnz2MpomutuV1IszaZvaF2Wu/1d+nKVhb6kFZ7TfGxmy+bMXrzUpxvPn63l375IrlWH7ns9lsvpit+EsJEaFktb1uVfHc5m9RRuTnNcYK3XabvjvEJvPM27547/qP2Xa/dOdHcCMCMxrJ3INl8EMkNv+c0E31o0nNsQ6MhQchBWGrGhNtf+30lMYW9i0ZqRzx/WYb3oYABCAAgYIAQvfEbiBdZ3SYXytzO6ISupaQdd92c0f9Nq+e3szy3j3gNTaiW9Xr5Ugu7p7Mt9+33s/oeld0lWLhYWduqutJrftlIzmxUcZCfqb7bCSfNZrzKwsvMX/YFjy+H44WuhLPN/OwuwlvUBBzYFvbC/322uv4hSrdYyjL5oOg/Ell78a4Puc6J3Qz/fD9pejH3fLRPFq3NEhjSTMm5Kv5vJ/JRuieeAamOghAYG4EELpzs/in6G9OvHyKTtBICEAAAhCAAATOTAChe2YDUL1EAKGLX0AAAhCAAAQgsD8BhO7+DCnh4AQQugdHSoEQgAAEIACBGRJA6M7Q6HQZAhCAAAQgAAEIzIEAQncOVqaPEIAABCAAAQhAYIYEELozNDpdhgAEIAABCEAAAnMggNCdg5XpIwQgAAEIQAACEJghAYTuDI1OlyEAAQhAAAIQgMAcCCB052Bl+ggBCEAAAhCAAARmSAChO0Oj02UIQAACEIAABCAwBwII3TlYmT5CAAIQgAAEIACBGRJA6M7Q6HQZAhCAAAQgAAEIzIEAQncOVqaPEIAABCAAAQhAYIYEELozNDpdhgAEIAABCEAAAnMggNCdg5XpIwQgAAEIQAACEJghAYTuDI1OlyEAAQhAAAIQgMAcCCB052Bl+ggBCEAAAhCAAARmSAChO0Oj02UIQAACEIAABCAwBwII3TlYmT5CAAIQgAAEIACBGRJA6M7Q6HQZAhCAAAQgAAEIzIEAQncOVqaPEIAABCAAAQhAYIYEELozNDpdhgAEIAABCEAAAnMggNCdg5WP0sed2VzfmMflk/n38v0oNegLDdvyvL4yt7s78/a+NUt9QTwJAQhAAAIQgMAFEUDoXpAx7a5UQu817NzSqwaVAAAgAElEQVTq6Z8ZrEt3G3O9+WrenRefzfrq1rwupiAmfaHb/O+PlXn692LOLcMv1MXoFgQgAAEIQGDyBBC6kzfRuAaGEc3x4m+3uTY3j8sJi8YpRZfH2Yu3IAABCEAAAhA4PAGE7uGZTqJEcev+eW2uijCvGNUto7Y3O/MgREDHCN3dZm1+/ngxWydvoIwC35vl27v37y4y+V0faylu18a8lGUNF7rP62vzZ5toR4KHGzkv2+BHjev2/P72Zt5dAJPwDRoBAQhAAAIQmAsBhO6pLV0JqEfz0dW7MHcZ4TemiZLQrQWrcesL2lPW1m75t1FgtwW1UI7kxRbvrl5fTZ01UZfzpaq373Fdmtvvqr3Cu1LaQZiWsTCLxYf5sPKFg/5XIr9o0apom53S4adeJHmU7W5E7HJlyoKqXnVlNOkcvsFWU8hjHuNFvAMBCEAAAhD43AQQuqe0XyO23LzRWhwVinB47myi7b7Qq0VuIcsc0SVFQsN/kyO6EaFbiMjFXS6SWfd5Zz3Xitfsu40QXVq8pL7JQrdqXH9ALYhwa3j04t+PjNd98PKCU1H0U/oedUEAAhCAAARmSAChezKjl+Lul/lPPByV+tu4BkpRzyByXInG3+abF1GuhOPvb50gHCR0VTcdjL8lYXRbKsG586LnnuBW8YilSYTivbZcE+UlqjvOkXkLAhCAAAQgsAcBhO4e8Aa9Kt5c0JeQzRkdVFkhr7zrtWrh66VJNNFGueg+MjlaXNoFS3VZ4k97HZj8nEI4a4SuikdE6AqR5rr7w/OHB5qaxyEAAQhAAAIQiBBA6J7KNc4sdMXIoij+QiD7Ct02taDf6lcI04hdji90/aiv3xCE7qmGDPVAAAIQgAAE9iWA0N2XoPr9M6QueGkEgWCNRiHdTu0ndDV5r2EEOoZVbkuYHiDn6GpSFx6Nnf8ryP7ID2VEUhcaxkXOBDcwqMcKD0IAAhCAAAQOQwChexiOulLKCOqv/7xfEquF4O7huIfRqgYGoit2t+6z2Wy+mG17NZYY+dVGZZvnTH8ITHV4LK5061srurQH66aDVCqEJnWhTTMIfmjC5hFPRWjzooPItVPe+PuMdU7GUxCAAAQgAAEItAQQuif2hU7kWfWO+rWyTLuTW/yi8PIKdA5PuddmJa8Xkw6j+Vd2FTcf3C0fzaPpr93S5uhWrfRyacubGh52N8X1ZInyVEK3+hqoI7b+bWgdj3TObXgI0P91NoTuiYcc1UEAAhCAwIwJIHRnbHy6DgEIQAACEIAABC6ZAEL3kq1L3yAAAQhAAAIQgMCMCSB0Z2x8ug4BCEAAAhCAAAQumQBC95KtS98gAAEIQAACEIDAjAkgdGdsfLoOAQhAAAIQgAAELpkAQveSrUvfIAABCEAAAhCAwIwJIHRnbHy6DgEIQAACEIAABC6ZAEL3kq1L3yAAAQhAAAIQgMCMCSB0Z2x8ug4BCEAAAhCAAAQumQBC95KtS98gAAEIQAACEIDAjAkgdGdsfLoOAQhAAAIQgAAELpkAQveSrUvfIAABCEAAAhCAwIwJIHRnbHy6DgEIQAACEIAABC6ZAEL3kq1L3yAAAQhAAAIQgMCMCSB0Z2x8ug4BCEAAAhCAAAQumQBC95KtS98gAAEIQAACEIDAjAkgdGdsfLoOAQhAAAIQgAAELpkAQveSrUvfIAABCEAAAhCAwIwJIHRnbHy6DgEIQAACEIAABC6ZAEL3kq1L3yAAAQhAAAIQgMCMCSB0Z2x8ug4BCEAAAhCAAAQumQBC95Kta/XteX1t/mzfzXY50Q7vNub65tEsn/6Zl++HbuPObK5vzOPyyfw7fOGHbuzxy8uyfjbrq1vzurgzb+9bc1SXeV6bq9uduXuboG9mOR3fVF0NPqcpte2EGKgKAhCAwFACCN2hxD7T89Xi+Bq2eDVBwXfUhRuh6zhB4xeLuzfzLnz5PK+vzK05jY/sNtfm5vHDrI7ygaMfrGU7Nl/f3Y+sDCd96Qd40he6U2rbAbpHERCAAASORQCheyyy5y63FbmBqC2iddd/zPbYkbqh/UfoDiV2pOefzfPzd/P94FH1IzX3IMV+gg+hKUe+D2IDCoEABCBwHAII3eNwPXOpzcL9sTJP/15MXrPUz+8ecmkDGpFcPLM25iWSIlBGC++XQiQxKnSVbSveX//8YV7E3IyEkCkFxP1y4BZ9vbVfwM2mWZT9/fVf6rmyrHuzzGzd7zZr8/PHi5d6onm36Pv6p/nxok1BGNK3IekwSjt6I2dMyo3Mypio75lxQve5dnR3fKn8KT1GOgRlWb/+q9Nthgrdcjxtvpr3RKpOnIdthEhbq/aUQ0Azv5x5OqR6CEBg1gQQuqc2fyPoPrp6F4fPT2zqKAoWt6adhVRIbbC3kett7JVZvb4aOwki2PaW0iSsHM+qHC+LwinDF7qRtAtni7tZbFerom1N2fIWuC9k2g8Bz/i5nNTAdvX7Tj+ENtVP+R8dTR6s0wTXF0L2dRlfmu1+t/WeH4ltbdogfVTs07cMt8D29vPilnxBy7JpAzn5MRJjVX7kJX1vEKfab34vV6Z0uGoMV335YX6WOeD9oG4do29zVc9vU79aPxhLHTFCmxaLhfkoXutymQMbCm1rHMQfE7qxKLe1TTVJ+t6p51TqgwAEIJAggNA9pXuIURB9BE3d1EYkDs97DCNb7aJoL8r1v9nCrRFtXprE82ZjvmyLSKIUjRp8uEaIurViOCdQNRG7bMSsqd+4B7Tqhd8SIFKbWuFi8akY7tyy/H+T2Ms+UPPfdR82sbZuzN/CHt8jIulxTN+yvpbx70juaS0gmyh0to5ezMofYN5ht8DWkYhujFMhOLNjK+LfRTZyNgoa+kb7UWR9zKjaJvjBgLEYtFX8gJZ9TT1X8SAEIACBIxNA6B4ZcF98uVj9Mv+JW32pv41ooEIYxEoVxZYnyIJt1Ex+rXy4yRNAihzdQABkxWnbS8XWdK7+2N/9xT/SJrftEfHnfQhJYli2m98/X/h6b/l92atvuro+YgcgRaHr38KQqaON2vp+2v57cLDO5z9Q6Gpu79AyDgwa6Wv2w1DuQ/0htuzE9T5j0S+rG13+x96IKYtXIAABCByLAEL3WGT9cjM5c2NyEaNNHyJ0pa1bP+UgJ3STgjOSJtA0vovAabfTU9veUSCyCJC2cKORumgfPWESec4RCZE0gbr5fdQuKXSl1I5WTA4V7Xv1LS9C6w+jLrfEveLtqEJX6XuxiH8sahoRukl/ytmkV43yNXsHEbpKHpG2Rv1R/cF5qsmWeiAAAQj0BBC6p/KGUwpdI6cShMGjWoAEaQmWsBUXN5U4GRBNLR+N5Oim2qY/oBPL0bW2kXNCZC8x2G6tJ3JkBT+MCYvwSi6vf7m+iKylu2w1Il4hdNu+dYLX4q7ypXwdMitFJL9q274RXeHw59iIbsx2hxS6uYg0QvdUqwL1QAACJyCA0D0B5LqKE6YulLVVebTpg27qPNFcRFeTuiBsKzvovTI0bRstdBPR4+gPViQFyGufsykK4oGpBQ0YvXgbWL5WhPk7A2Lf8iI0ZefAhiPriH0U6NI/9hS6Gn/KfXx0kGSeQS64Mtospi4MHIt9sNlNg+i/X/yc/ZNNqlQEAQhAIEsAoZtFdMAHykW8vS6oK3bctUvZVlnb48EtCs1BsiJp2D1U1kbchqYutBEx+zqzsqz22q6mXP+g0K44rFYdjqqCau4vowUH3oS27St0+1sp+i3d+CGj9hn746GJnAsHp+wUBOlHEeQPkaKOzV+z3dYXwiWFrnVwrDsJ7x92sz90Kr4781DmiMdE0oembwPzZwu7Xf/Z9rd/5CK4Bxa6bdpE0vdirJVisvXdpD+phW74kdrfdKA4jOZFa4O82hFjsZ+q6jH6Ifh7ePOIu1OUna94AAIQgMCRCCB0jwQ2Vqx0PU/2BPfoNuausPL/vjJ3dzvz+Ptbd+JdlbpQy7L6Z2OttoZXgfm/0pZauPNtGy10K11d/yJX+9/i7s4sH4vrE5J34wo5jv6ND61Qu1uax8e+v9JVUlJOp33bQDQa6ef4Fm24Wz6aR+fQVdjWZD5097FiGTDWN+fOX+VhNKdY69q7nPC1fKu/VSIcEIPzma1c6OarwvoVwViKSTwVIutPA4Rul0rRuWfRnreluS+uJ/vWsleKcPEAmZTfbfNItVXIL49dNRi9Pm30fMaLEIAABIYTQOgOZ8YbEIgT4GAO3gEBCEAAAhCYDAGE7mRMQUMuggBC9yLMSCcgAAEIQOAyCCB0L8OO9GIqBBC6U7EE7YAABCAAAQgYhC5OAAEIQAACEIAABCBwkQQQuhdpVjoFAQhAAAIQgAAEIIDQxQcgAAEIQAACEIAABC6SAEL3Is1KpyAAAQhAAAIQgAAEELr4AAQgAAEIQAACEIDARRJA6F6kWekUBCAAAQhAAAIQgABCFx+AAAQgAAEIQAACELhIAgjdizQrnYIABCAAAQhAAAIQQOjiAxCAAAQgAAEIQAACF0kAoXuRZqVTEIAABCAAAQhAAAIIXXwAAhCAAAQgAAEIQOAiCSB0L9KsdAoCEIAABCAAAQhAAKGLD0AAAhCAAAQgAAEIXCQBhO5FmpVOQQACEIAABCAAAQggdPEBCEAAAhCAAAQgAIGLJIDQvUiz0ikIQAACEIAABCAAAYQuPgABCEAAAhCAAAQgcJEEELoXaVY6BQEIQAACEIAABCCA0MUHIAABCEAAAhCAAAQukgBC9yLNOqBTu425vnk0y6d/5uX7gPeCR5/N+urW7O7ezPt2uU9Bunef1+bqdmfu3t7NKarTNerQT+3M5vrGPC6fzL/9jHPohhlzdP7H6/tuc21uHpfm6d+L2cvlA6phm5/XV+Z2d2fe3rfmBKPi8HY+YInDuDcsP1ZHsFOuUyeey3LN8f5+bp86Wv1Hn1MGgubxiyEwb6HbiLwP35yLaSxMz+tr82d7ZCGH0D34YC4X9M3X9z0/HMpmHU/sDem05Ie1aPkwq70/kGItOV7fhwmuIaT8Np9TrA1p92meHcK9evb3tzN9ICB04x5xPJ8+7pxS2PT6j9nywXmawT6xWhC6fjSz+qp8NYtTRSajDnGiyRahe+AheUiBdsiyxnbzRH6oiI6O7YH/3hDBNazOKdhrWItP+bSe+848Pxvz/fu5YuDn8nmdNY4WUdVV/zmfIlr8Oe12oFYjdINt+2axMlJUt54Ai720dLSuEI/rnz/MS3ZPPVWeZrItnlkb8xJsayvbWQUNY6kLNYfdQ6qvZT2/zH/VFnCqvQPak3LscrL69V+9jX+AiWu3WZufP1681AdNv8tGxiIECrFTMd+Zh+zWeaKssv/3y8ERr+faYbwt+9I+92YppoFo/NA3muyXldDZPSTSMMr+lu0rdzEO2/ey7rV5qdJqUoKrFBH3yyHpN8o2R/w6u2uj9BXZrjXD39+G9KdpaFlvZYp4yoUm6qrlXo0ncS5zweV9qH4+yzWwh24uU9Uvzf+58aq0c923eDpM3iapsS6M4+i8IDh00cfrP9ujpK6puKfsnl0vcly060LPRV5f6r9n+5Pzl2a9TWmRbB0HEpGfoZhJCt1qIL82+I6ZRiCKPEHoRlIcnKhvNZCMWa1ezWvT9ui2bq68JqrsOFDLoXr3t1muTFFPnXTRtSNXruSRPgOp7uI9ty/t9pVV4GJhFh9Fe+xI+Jj2JNpop5gsivrq6prUjpQtrRzXyrfMyqwKI9VmanIAFf0O360bm+Zv5RiKPFI5iLGtcA9Scow0Yqd2GFMx7J6vRWw71Jre9ExTfugvHFG//CvUUTmUI3idMV9TNYvFh/nobCf4nNOXyHQr9KH2HTdHN6zfsmu0aGueEtssiBJhnmicyP1oyfrKULuGzN1uCeV1U7ArlCVW3ThqC9Vwj/qM8XLTJT/1+qPlGthSM5eNq7+aM7/UgQR77nLm0qydQ+eThG7eJkI/vTHY15R+1q+/TTkIW9rObfJHa/DBKYhRsWy73Qq7p8d2Zg4sOhW8r5hvi6wu57/a5go/Evwh7y/eXBWMvYV1lqVpwzF1VWS+POc/T07oigP2WEaRxFHzb71gkyO89QC0hFbrXNm2KsuLRUi7geALJG25nrtlUxeESUqYkFq79eJ/ZHuE0RBO7O2EYQ3gIUK3UHb51JSw32Ef20nQtkUsEin9ey76m/t7NQtnDuX1i5b/4RVdMJ3DU5GIrih0ywU9f3goWOAE23ULXHQxHtB3+zCfNH4khjmuyjYHjKV5ovm33j4aX8nY9dWzQ1CHP9Dk8mqft8aZWE4zHjtbCe2XuOfmssQhTFkkVQO7/2DI9ln2IWmcB7T8A42R+T8dYdXYWSF0NTZpPiq+aQ7vZp51fTqcH8Idk5FCN7E+d4enVeMpPlfk58Bhu5GBLijNV/Rj83drtsLJV5+Vyl+83Wa/zjogEzvAjNA9p+Cu645EAMs/HeXQS6w+e7KMCUFfEOcWxpautryM0A1uSVCXO1TohlEpeevMm/DGtifwwmFCy+USEavKU/B+P8V+B3aPiNPI4qGa2FK3Loz5UKkYRybwJkLS30iwD//IlOIxk1MJFCI/1/fI3/365IUhvcBp2ywLXf+2EGns/Da+KHF9JcYnlmrii9GI0PV9zWMY2zavxWEjrpXcc2lTydtG/HEnzr/5tBvVXCa5sar+9kPYjqhZhY2aE7TzsfcR3gjC/Ad+Kwrj51QkoetsoQdzyDihK8+Nzc5Dm46jtXviuWD7325/qxFSH9yWSVNpJeJs6LUr+LC0X1Ktqc1uyFluKzm/hIy1YFoR3bMLXWFCigpYbxLVCl1teUOFrrpchdCV7NCJf+UCO7Y9YehEvv4sElHcS+gm+x3JjdMK3TbyII7EWBRUZi3tesQ/BFPC291S7ZsWbnUF18ap+Hdfd/VWtLOd19chLw4H6HvEB12RKmzTWjaKCQNtm0cJXZWvpO0aXheY+3DQjGs/paAH5TBVce8DG7q2SnbyI82ZD4hg7Gn63B6IG1N/Fb2xfN9bX1R2DicM16fidhWjhc0gzAleO2XAfzZXfzg2xgldcXe3xdEKz32EbkJvlKlTXVqcbaek4M2NMd8f2s7YfpHzF+lKTf+Dzk6RyO+wTVeeHq5l0xK61cekn/dW/GM2HWAkkFxEqAp8xbaGL1ToCl/+uYmtpq/lkY+yONaM2UgltAZEdLP9PoTQHXrvr9/+dhIM837j9yAPFUT+WNo3oitslUlRjCDKfoC+qwSXZnHKiQ1P0Ps54XbfNAuz6qN5qF1z/UyXV6dynUvo5n1Inqdzc41W6I6t3/abXsB0wlFl55zv6YVu56XN1YCadbUTvNYaLK4HkY/Yus49hG5u900znmLruGb9t/F3gndYYKIvQuFH3cND/CWzi1OUeZQd8ZGy6xyvTU7o1j55zsNonhmSQuu1dyDtpKUtb2hEV11uun/5nKWI4PNTOca2JxgF8iAOcqHE+sLt2uTWqzepHj51YegPc3gLhCZnLeCnXcxj08+eQlcaF96/yWkAnu3G9D3ig842ezvf5BbUYNhIPzqh8DfNwqxagAfa1R+fWj8Z8lHS5g4quatTFxQ+NE7oKuey0fVnRKrKzjmhG7uFofEP8fagyun1P7iT8oGqD7kbZFK7M5ZoVM0LHg/NeIoJ3eRNQZH5MGOzZOqCxo+C7lk3bIxaU3MfuOeQnaevc5JC92QYVBNN+2WVObmonjiU5cV+LCDaZm25CqFrH2Rpv2KFQx7SbQPBYbSP3InPXO5gmOfWb6ulyra2b6ztJlWOYTcxuodbdDm6mYUnyJ16NpvNF7MVr6KThW5wULKIpgxOXeg+KP10naLOzd+iPe3JichEqYqotwuq9UHYLC5FBmBwY8ZHZyfBdoFQ6yMe2b5bzPuPaH+BDXMSd5uN+bvdyr+eFuTuKf1NtTALkftq2Nq+El/A2j4Gh9uSeXvWlqlvB2Hs27dmtOMxVZ/IPTeXtZHxZg7qy29Z75u60Ptnci4bXX/JdGO+vrfX+Sl2KQI754VuLVqLucqa53yblP/b/hEb+eOyriv3rJSjG725pWm+n3saH4fWrlcsP/a5ONz1pTjcVWaVqMZT1SkxBU7OibXmwKJ858q03Dof7AzWNq+u6SwuOCztFPdjrb9k1j3nhzEiaQ3H2iU/mXgbVhFCV/Xzt9Yi0PL1HSU3ABy7KMprJpzy16eq/5zrxWKRQV25blP8CcDO7ymfXJm7u5159H6lyL/2ZfX0Zpb3/p2divZkI03V1OvleBYi5W1p7otr1pwDO93WUovszTzsbpwTqPEv7ny/tUK3W3iqZgg3Mvg/xZe75sfaCve5L+7uzPKxuP4jerdz+otekyrk1Nn6oVboVmuRm460Ktq8exxuu+F9r8Whc4Va2f6HnbmprsO27hP2fKfxoPRPTI/xN+3CHPh8M2pTNxtYAzu0ay5Xr/WTO3O3e7TyqYX3BFbhx4aCu1boanxIzTVcIDVzWdaHI/N/3g7CHFlNG/Gf/Y7PQ67cdGyislmnSmvhbP1nl5VMZbPzXp0+KPxBYhjJo+3ao7a7y9nOO07OgUL9Q/KbnbVb4cej/MXRIrk1V0ifCIfExf3LvIXuxZnzE3aomqg80fEJu0GTIfC5CbDF+bntd57WxyLD6dtkztNWap0vAYTufG0/gZ5b2zrCHYMTaCBNgMBMCCB0Z2Log3ZTlV9/0BopDALDCSB0hzPjjUMR8POfDlUu5UAAAgMJIHQHAuPxikAk9WJmOaA4w7QJIHSnbR9aBwEIQAACEIAABCAwkgBCdyQ4XoMABCAAAQhAAAIQmDYBhO607UPrIAABCEAAAhCAAARGEkDojgTHaxCAAAQgAAEIQAAC0yaA0J22fWgdBCAAAQhAAAIQgMBIAgjdkeB4DQIQgAAEIAABCEBg2gQQutO2D62DAAQgAAEIQAACEBhJAKE7EhyvQQACEIAABCAAAQhMmwBCd9r2oXUQgAAEIAABCEAAAiMJIHRHguM1CEAAAhCAAAQgAIFpE0DoTts+tA4CEIAABCAAAQhAYCQBhO5IcLwGAQhAAAIQgAAEIDBtAgjdaduH1kEAAhCAAAQgAAEIjCSA0B0JjtcgAAEIQAACEIAABKZNAKE7bfvQOghAAAIQgAAEIACBkQQQuiPB8RoEIAABCEAAAhCAwLQJIHSnbR9aBwEIQAACEIAABCAwkgBCdyQ4XoMABCAAAQhAAAIQmDYBhO607bN363aba3Pz+5t5e9+apVXa8/rK3O7ugn/fu8K2gOe1ubrdmbu3d7O1K3Yq2JnN9Y15XD6Zfy/fD1Y1BU2UgMonJtr2plm6cfNs1le3Znf3Zt7jzq/o6CcaH7uNub55NMunf2b2Q3kCLHR+GnfB4P0LGLuKAccjF0oAoXuhhq0E7uOH27tFK2ybBfRjZZ7+vZijSEzVxPiJFvIL9ZOTdkvlEydtUaKyQqxe/zFb5wNRO24uW+iWc8vm67sraCvbvprF3uJ+Kvbfox0TYHFooduuJ6ujfMhIY20P/rwKAY8AQvcSXaKJKBThVCeitNvtzHIZDa8eloRK1CB0Dwt94qWpfGIifdirrZcsdBmzE/HQZDMOLXSP2ue9xtpRW0bhF0IAoXshhnS60UQUDvL1XZZ1v4ykONSL3u5B2K6MTl7lO2tjXsqUhtSiWf/t97eB27+VyN+Zh2ikuhQh92aZTKnwnKIsc/PVvDt7svkoRBUF2T1k0zLECJnTBC2Lok0l2tzesdifsQNhAM+kT0T8KNqsgsn6p/nx4qbk1I8n/NIr73l9bf5shfSawYtvyeGX+a/yu7jQzfuEdnz4YAbYwX618IX1zx/mxUuxiLdznNB9rh3T3T1Kzi19I8V3g+6n5iljSuF3vxwyl+h9SD9yUjYaU1/8nUFCt7DD2rw4Efoh7+d9uiY0fqyN9G29YXjywgkgdE9t4Cba2icVLDJ5rCMa2NbRpSqEZWQnsqCdxnTCuRHSfqmOsBaEQlXnq/3WwiwWH+bDydGtRYLzWPnKKpPHK7T3/9s7V8W2diUMq0/iQIcV9g0cWNiyA8ti2EcItFnhZgkMTN6gsKyGyZP0rPvSZSTNuthesb+NzmlsXb4ZjX5JI7n4kpWa0R47W/UnyqzaWnx/8/rqtGXz+NesfxZ5xVZWiH9cK6aN2HVVbX02640xr692eomfSqJgIZQVPT4WGK02ZSMO5msr/MX8QkncSG3L+LLvExo/8p0sZWdNedVnCs/YFHa1ncwaK6Gfmu5IPhw3gl+tCr9+L+zanago7FgJAc34cIGIvmY0dnAZtGM36bsp9oHfNIuz2slN5eUV4x/mV5mX72VV1X9rFy2x7wqLmlScEpn2thQja86HIpsINbfS5MWiyfj5yonYk6tPaqTiO9n4nmGjydHNxrmJY60YEcJccIT5csQUy1c+FgGE7int1Qx8Ny+2HsyFIpv1EocdhCThkwuEsUtsMi5BCPmiRhBQXRstEVhP9p7gy+5QS0LM+7dGEHaCLmP3VnT07KzJKtVeSSj6/9ZNzlY/hXQTFQuprEjfQpu3E4k1eSiFruQ/OZ8qlFzmgmJut7D5u3EvUR62W/NntxNyzWN+WShcW1hJ/hVpq0YAhL4TGqT2/XW/EFOOj3y4UqRNtELJXwhrfLfZLQ8ukEaEbilosydLAet+rOW+m4xTkg2zPhisrLwLs9pYY13MGxR7cmNA8oDwO7qx+OrZ5slst5/Nrtjdz/q5xlckP5sy1lpxfsxL1PkBxic+IAGE7smMZh9t+pWm/jalge6K2J40coGwnqz1q+dcYAwm9qpbfoCOTdJNP2I7sJGJxJkEmwCrvSwj8RH74C1e5InXSz1QiUklC7EscRtIfglAsSCJ2SlYnIkLOastCpGR9kuFiPO6nvPL+uNCuUqhK7dX0U6vfN340MQChVCK9E3lu0OFrrFkUd4AACAASURBVOZFlZhIVnw3FafqUxn/JGj4xoJvY2f3trzyEFnIdi9QzBB7cpb325iL77K/9bXkxo3KV0Q/0461iJ1yMSYHir9fJQGE7qnMnsmLjOYvzdK+cOcuFwg7cVOfOYbpFdIxZrBL1j8vJtcn7bpKTxRlJu/IUV6Nrt81ze1y26jHCl3p2LsrtxXqGqEbFbBaZp7jxMobI3TFI+y2vsTiSJr4cn5kd0Mj6nPlTZp8m/SCbkcp5peS0BWOr61xpRofsVgg+X8q1Scl4oOcoabSrrxInweKVWmc9AtxhVjvWNhcbd+TePcAkwvenA95py+DdufLaOq/TJGrT7J75ju5+D74757PqOLclLE2NsbMMl9SyKURQOieyqJnFbr9rkObN5gLdD2WfsLoArSwQ5HbAVBN5Fpx59tMsVPo6qXm6bWBOcyaHV0V1wsRuoPfTPXtpPGjIUJXU96Uybdoi2tfrdBtFppTF4JCrAqffVKIROVutRwapwrdNp6EaTu9Pyn6EDTOj1Nm3BvdGh9y/KDOOXYuzSYWZN1iu/UFZX1OdxXfycWhwX+XhG4uhWDKWNMsak81d1PPhyeA0D2ZCc+RumB1zgscuUAXasn+Byb+CD82kRO68lGZn5IQOfL1dlDCOW7EY/UZcTx2Rzd3JFi1XSN0Yzf3fRbqCUFmmz2GrRqstFNuLCkmyympC9J3c35ZN1l7nOoL3fD/2/btLqNJvqZKXcik7IhpBAqRmEpdsPOGRXtOFLqa3M5YekTOv7yFiBSnckWofKhymSbf/PGref7+3F/mjI5vq2aL/5dt+MM9udisaWOujFycyo2b3PfrYSXl5GvHmiL9J2dM/g6BhgBC95SuUA78//7nPTdVTxziE10j2xbmT7WpC/0uSjoQlm3ami9v7XNA7uRWH1tZOzLt0Wlix6oVd+/dEaiVPxxc7rIvsAg7QKHSrXdvgh/A6C9XlEzsR+5zgXqs0A372TT2aWu2n3f1r8SphG5/Cz840rX7qRa6bXn98W6fymEf+fq7jyk7+WkKha22f4rLLJGfIBGPPzN+5Nm69j3/8lz9nFyRhDzcL2NCN8JVFgDWDyVYR67+CUhvx/glwNz4cHGEl/OkC57BcIkt8tq2+2kPtu96YrJ7lVubuhAsWqWLZwqxXq8oknGqFlrhj1jELy+2Y0Tjk9a4yFzqS8Uelc+KYyDdxpzQleJU+Z32Cbac0FXFOa3QTY214J6IF2MiNh45dfK1CyWA0D2xYaUnWXI3i4c30b2EVn/ffckgFwjDHCz7+375G3N/fzB7+6eGo7tYfRJgKQQeDrfBhZF03TEakZy8dtIW8hhT3EcL3Wr+rXeY/ReUuvqUQrfeFPGfnPJepBggdN2868YnHo357v9Us8dKb6eizEQ6SLjDo/Cj6KKm/0Of86goTzv5truKjRHbOuJ+0Vu7fYLOPs727bi5vzeHvbcTqOTuIPF9reB/v96bfXAJy/pW6jQj57u1U1YC0okrWqFbDQ/3VxtXBYv1vnibq3t5Rit0FeNDGPfinYMOj8KHms+2No3l3PqX0Wy7hYue9q9CLA3GQL6NufheFRmwSWyESD6T85WJY02Of16MQegOlwdX+A2E7hUanS5DoJ/Xc09+wQoCEIAABCDwcQkgdD+u7Wg5BKYTyOQqT6+AEiAAAQhAAALnI4DQPR97aobA+QkgdM9vA1oAAQhAAAJHI4DQPRpaCoYABCAAAQhAAAIQOCcBhO456VM3BCAAAQhAAAIQgMDRCCB0j4aWgiEAAQhAAAIQgAAEzkkAoXtO+tQNAQhAAAIQgAAEIHA0Agjdo6GlYAhAAAIQgAAEIACBcxJA6J6TPnVDAAIQgAAEIAABCByNAEL3aGgpGAIQgAAEIAABCEDgnAQQuuekT90QgAAEIAABCEAAAkcjgNA9GloKhgAEIAABCEAAAhA4JwGE7jnpUzcEIAABCEAAAhCAwNEIIHSPhpaCIQABCEAAAhCAAATOSQChe0761A0BCEAAAhCAAAQgcDQCCN2joaVgCEAAAhCAAAQgAIFzEkDonpM+dUMAAhCAAAQgAAEIHI0AQvdoaCkYAhCAAAQgAAEIQOCcBBC656RP3RCAAAQgAAEIQAACRyOA0D0aWgqGAAQgAAEIQAACEDgnAYTuOelTNwQgAAEIQAACEIDA0QggdI+GdhkFH7Y35vb5q/n7tjNrq0lPd5/M98N98O+ztfrpznz6fjD3f9/Mzq7YqeBgtje3Zr9+NP9evs1WNQUtjcAF2PmwNTe3e7N+/GdSrlqNt/3aPP57MVM8eq5yju8JF2Db40OqaghiripGHqNx2MydhjJju7LTq1nd/zVv8cnsGIaizJkIIHRnArm0YuqJ8t1t1qoVtk2ge99MnpCj/VYFcQLu0vzmOO35WHZ+ursxv3feAk052c0lUOcqZ057lm3afnnzhP6Tufv03bx2sWXOGi+rLF/otjF6k1k8zU/hY43H+fvvlZgc27V/FxNlcoF79DZSwSQCCN1J+Bb65Wb3qdhOdVagh8PBrNfR7dV5O4PQnZfnhy7tI02s9cR2GLl7M5dAnauc+dzmI9lwvl7PWdLRT9HUjcWWalRPT+bp27dJpzPquvjg0QggdI+G9owFNyvUWXYKyrJ+riMpDnXAPDwIq92o0C2/c2fMS7ljlgq49d+evw48LqpE/sE8RI+OSyHz06yTKRWe7coyt1/Mm3NmXZRz89vsvJSQ/psJNkNco+JYbiikj8IP2zvz68dLIk2krLRs09Z8eZt2rN42vxJjhwdF2knczvoyLLKpvib91QIv2rT8+3ChW/bhzrxUi8q4QM37na4c33lG+lnR/7tfP8yLdxQbt8c4cfR0V45139/yLCpLiN/1+58pKxsP5MEYG0+lWP25TsWkeHvmEbpKe0fsW/c2YUvt+LGxKWNUbdNP5r//JXZHlfYSfUPV9sI+lUsqE4sG9U04CRoS6/ns0QggdI+GNlJws9vaJxWsMnmsIxrY1pE4TswG3aCdxnTCuRHSfsscYS0I3arOV/tbK7NavZt3J0e3OQoNC08LKqG9RYstgdima1gFb+K5wVVbi+9vXl+N3eTN41+z/lnkFVtZIU7uVo5NZBFSCyTT+YKYemJcXwnbGEtFEfq+KvpW9OzQLSTkyU8SbmLbEizDiXWMjYU+FKasfU7+W5FUZy3QmoXTemNMYVM7qSfp120ZUo6uYOvVamXe3/scXY0di9m/ygF0RoZXThAFcn4mhY1m0t5sCp9uqmv7nrRpcmz5fiNwbhgWq6wwncrx6fh3w3OozHjOxoMQUGo8hbHLODmbGjunc3RlH+5ii8beCfu6vZVt5me6ueMn5KXpc+3bxTi1fK4uyYtVWXvFfOOH+VXe8/Cy9IK2S/wSY3tS30jjGSFajvsVhO5x+bqli6vD4+QA2QNVSqLPCd3YJTYZlyCSfKErCIWujZZIqicULwhmd6glkeb9W1X/s/mq3MltJ7aenTUR5drrQIpMKiYUYd2lPDH1pCnH+l7YxogzJxYdQf+8i4GB0JUEX/aiVn43MHdU7y8Eqp4W9W7/7MxO2pwJ+tzbr1+QhUyjO7pBH4U+dZN1Kvfd3zEeW45v6zzjTlD7E7HKprHy46Ipf6IUYVGIlux3k+NZEQ+EoRIdT9LpVDY1KzwZGHIZLTcexF3ZVsxlhZbWVxKXiZUxSvS5dpx0cVRjL2n8auNds7D2FuNP2635vCsuafv+P6Vv2bnqlIKDuloCCN2T+UI52P4z/xOPoFN/m9JAd+fMnjxyQrcO+vrd5lwQlwO3H+Bix8ZyoOrIRCY9R6w3AUh7c1biI/ZBcbQlX0Lpd29LwWbf6I9Ncr7Yy9mw5SN/TiG4Ki3pviIgL4Ca3ZZomsn0iVXbV9cn7FcStDvWER+MTIb+KwyDBUpkkZAvJ7IjmXpJJSLOdDYdKHRVL6lERLLmu6nxrIkHMaEr8Kt3ev3Tn9wGRcgrFyN93/XvWPhNVpcX9FUxHjOLV22MqoVuKJidtqvspWhz20/lWI3Fiml9G576NGWG57s6AghdHafpnyoHX5Dn2Rcr3vSeXmtTQit4e+GaFw72UZogeKWjJnsnwQtwcn3Srqv0hFMmyEWO9erO97truV1uG/ckoZtj4+WB+kIjahsVU+1O3zihKx3hdjVG0xcSOzbOkWNsYaWb5KS2Bbu3uR3rWI6uP3mmRKP/vJjkny2rIeUEpq0XSC7CxJOBKdHhZk70NSV33cqPDRSrKRap3FEhFkbHszIeZIVj9QE7DoaNyKYt+ac/tpAW7SGdMjT15uJKdpe5U4Lis47p8eP2XRujYkLXEZMqe6VjQLLtOS7e2J7WN4TubLJlxoIQujPCTBZ1VqFbxut6Umx3CfJC1wuKxWzq54vZQT63u3B8oZt7s7e3TjdBDsxhVu3oCjtNUt/7f6tzzOxLd9pAq7NhbIKYIHQHv78s79w7T1IlJ6Oc0G3FiJUyoEk1qIaF/+6tckdXKVBbX4sKbmU5QWxR+pnzPc3uWjSITd/RzbIYKHS7CNXm/rbjOSdsIn1UxajId/N9U76jG2u7xt7qfsfSTVLjZ16hWwvTpj5VuzP+Zz+VqVyUdj1C6J5KBZ2tHoTuydCfI3XB6px2MCsmgT/Cj03khK58HOSnJKRFRvQoL5sjKnQqE1zH7uimRa31ox1t/Y9fzfN3N3c4dnTmTA5Fl3RCN/K5IA9Nnkj8OsccqQe7fhL7EfaITVT1Rpz/CPxpUhdcXorcw4jv+tx9D1b7mf3FsaK6Bhr5cRftjq6CxUihWzXP7pvR/biHhmlddO7HdTR90wjd+G6gyt4qwSjYUpWj7dLSxih5R1d7kmfXGfE/Tdtz84MydSwYkyJvdnRPJqkGVITQHQBr8kfLgfHf/7zXA+oBLD7RNbLCMOeuTV3oV+zp4F22yX6Gyg0y8oAvzj4TqQut8HjvjvKs/OHgcpd9GUXYrQu4xD7zZLbbz2bXPPtkP3afE2yThK59ma49lgt2j63+Ry4HvQc83V/nyU/ADSh/N8g6Ag125a287P44MNzp6e3Y1lFcDPtcXAwTn2n2JqmmPf0uZ5haE5g42NGyxs1n97TCPm4enrqgnVBDnwt5hcfQ3WmCnxJg7UiJ3D0gqjEYKjn51wqDy0GyTXU7nhlBbF2mjLJQ5OiW342P53w8kEJr+iQl/GWsQ3GZ6U9xmelbK9CTfcsL3dR4Vtl7otDtNxL6dI3opcDWZzIxqn9RpE9Liu5+Bz9g1Mfv6EIrtmB3LjQK/lCyap/NjOT05uKvLOJjFyyP+ONMI3XCNX0NoXtia9t5ZW3V2RvGg9soPd/kDrScSOon266V1lNdfvkbc39/MHv7p4aju3Z9MmApsh4Ot8FFj3TdMRh9cHY+4eRCuomIKe5jhW57a7+vSWDTNLD1BfGCnJCP538uZ0NnP8R72mnz+GjMd/+HETy7lpPYw8Hc+u/4SrmCRWVxnqH48W28ub83h336VYxg7FiTrP+3VVHeel+k6nS/aKTd0W3TGZrM19TzYk0+b2driZfPqvjM/Xpv9s7lJiV3x7EVY1ArdKtNPiHf17epk0vZxhPtjq5QR8Ail6JidUjI63T9LxMPhDCSHE9iHqmVU66wc/rUK9dehb3HCt3KNO7Tb+H4EYApYlQnBu/XZr93Y7/7c7q5/sd9Q9f2cE7s/CWxK2znvwdxWrWjq9moGTzB84WBBBC6A4HxcQjMRaAO0NbrC3MVrCqHIzYVJj4EAQiMJ6AW3+Or4JsQyBFA6OYI8XcIHIXAgN2ro9SP0D0KVgqFAAR6AghdvGEBBBC6CzACTbhCAkGe6qkZIHRPTZz6IHB1BBC6V2fyJXYYobtEq9AmCEAAAhCAAAQgAIHJBBC6kxFSAAQgAAEIQAACEIDAEgkgdJdoFdoEAQhAAAIQgAAEIDCZAEJ3MkIKgAAEIAABCEAAAhBYIgGE7hKtQpsgAAEIQAACEIAABCYTQOhORkgBEIAABCAAAQhAAAJLJIDQXaJVaBMEIAABCEAAAhCAwGQCCN3JCCkAAhCAAAQgAAEIQGCJBBC6S7QKbYIABCAAAQhAAAIQmEwAoTsZIQVAAAIQgAAEIAABCCyRAEJ3iVahTRCAAAQgAAEIQAACkwkgdCcjpAAIQAACEIAABCAAgSUSQOgu0Sq0CQIQgAAEIAABCEBgMgGE7mSEFAABCEAAAhCAAAQgsEQCCN0lWoU2QQACEIAABCAAAQhMJoDQnYyQAiAAAQhAAAIQgAAElkgAobtEq9AmCEAAAhCAAAQgAIHJBBC6kxFSAAQgAAEIQAACEIDAEgkgdJdoFdoEAQhAAAIQgAAEIDCZAEJ3MkIKgAAEIAABCEAAAhBYIgGE7hKtQpvOT+Dpznz6fjD3f9/Mbj29OU93n8z3w735+7YzMxQ3vUGUMJHAwWxvbs1+/Wj+vXxLlKX93MTm8HUIJAk8mbtP383h/q95myOgzUD7sL0xt3szW4ydoUnTi5h53sg2KFNfzfjdbB7/mWSYylb0sT9wtUK3dYC4+Tbm8d+LSU1hH9v0Z2z9YWtutl/M24wjr7Tn9svbfIN55oCF0D2jvx2laq2ArQXG62r4Iufp7sb83s2z0JoPQdGfm99mx4JtPqSnKKmMuYWqfN/kFmanaExZRz1+nr8eR3gff+zI4+DUwjJZX2XzZ/N1ps2aU3nGMeq5WqHrwlzeavcYxl5KmfXgXM+4kNCKjgEEELoDYF3jR4/gcw7GhcakmcfFNXoOfS517jFF2AnGzgcYB4enJ2O+feMEsXA3hG4VdXQDo9yV+7nOr0BHryarwX8wD7md5Ak7ooftnfn142XScfxUDlmhWwaRn+sBx/wK0VEFJpMW1+Vn/vtffRSdDGS1vxSFqXeQUzu6FY/nrwP6a02VRTtvfu/mOY7U+p80U2v4VvPbdP+rxuudMS/CicBT/QfvJKa010+zHrOzEfVFhc9pFE10LOdjUuU3h4d06kRR/t2vH+bFO65Wfbfo+515cX18pgleVX/CziJaqb3WB9XjbEJ81Zi8+syEOlJjSMfVb6VufMTqVXP1bRHd7NC1J856prFTmSlyUjhiHCRjn2bOy/i3z0Nvl8s/pVmk0K1EwWtjthFHfupg030wPTCc9nTNsgRvM8lvNq/mtW13+Tlt29tjJafhdupEc8yz3piygnfrc7rcm2ZStr9YlFF/V56wJTE6nYOiHV4bswwz7OQUlZWbFyaUsVqtzHvRFidHV6yrNLNm8RPm6Eo8C6vodrorn7OdrfjmZlP5X5tyI4prKUBn/S8+olR8m2PKIlXM9fAh/tfsANVDoC6o5m7qI1B7bHTjrkkbcGr1bC92TfZT1xe1Qtf/nGIsC7a16xaZ20fSQjyqx7rEowoEjliOjfOHw20fl/04KE78flxV1B+1czyzPReX8uNMYZPUpKLq+8Q6kmNIwVXczMmPj4pdEZM2RWCpo00fn/JcE1JUuLOQjyWKuWrq2BH8r+5Fut/dHBD4wvQ5L+nfgu9p7BLate6lZi4brq/O/43FCV3RSFrBOJpnQuhKQcz/t3Zw2e1s/i0vRKXBK0+OpVDoy2s+Y/K5f2LSfzGgt392ZqcVujNyyO7otnZUr5ojoqMRcIVatXY8Q26hIGwnAFsUyby1FyqCOkT/aOrN5tEJ/e3EqheQ/QtwsUDsXKpSijgl31n8T+hf7Sb9ROKPNUnoj86VVnGTAtDYsRyJSQ2HtX2a4P+bFI8isTEYixG/3G4/m125KxwbkyqxFzYiqD9q50gHVO199S7j+ONM8iF9fJWZ+PabVkd6DCm4CkJXMz7a+TgQQHPHL9G8EYbeBdBwPpkwdiT/k+KcchwMtVvgSyr/ti5NK+0i2bX+N+VGy2itdZ4vLkvoRnbMqvXUgGPi4SjjQrde+fgJ/N7R9cggX8/Tcq6Se+ygWMkmOp2e3HVlz8lBLXSlSV3sp64P7Vfd4BOxvW/TWFtEsRc20rdBzCaqYBNpi89VtaOr8j/ZuWJ29IP7HP5Xj5O9cQSeLXSD1w8i6SXNbufgi6ZB/crFQCvEu/ZpfVX2S/k4stktbC/2qBeIBUDvs9mxqZzga4/JHyEHE7t6zDfLnEy+v26caW2SEtv+Cy1jRZpcx+AFWmAneXc9SL/yxkeSn/CKjCp+afxCHNtaO00YO6L/CfUqx8Fgu3n1Dx2POn8vh73wCtCQuDFcZJ31GwjdZECOHGE2JosfVyiDfPWx8Ai694h2daUd4JIv5SZkTdnzckgNXmlHP7/IkfsQDTL2gDYRASXu2kvPjSkm88rMdmCJ2yQb2DqfCdsySuiq/G/g5Ouwm8P/2gXhAKGbWDQXB3SqJ43SvpjrV7es8p4h04y3ePyQjyWbutqTgOSEJY3lnkd2YlZO8HGhm64/vqAZ6IPJRVCde9lfiNXa5FxCV+NrGa6+uFSOD9kfJsavlNCV4lF3wqW1kxyTVWNnVqGrsVszN7hZaN3G3rDxqLcLQvesuls2ejZPc3KbY2JF56i6o6shQdL/rHaAH1no5t4MVe5sy2KuDdTW0Yl6dwehW1p+vNAd916waiGxzo0hpW8P3dFV+05izLynfDHXryMK3dx7zFGh2xzZBylWvf2HTawWO9XYz9eP0B0TwxVcI0I3PCFx6z+l0G1zdIP0vJlOQ7K+XQdR4eRo7I5uLkbk57xsm5WbCqPmhsm6ajkFLGtHt+HirLyOnp8b3z2pN88UD/2rgnzE6KoJWSkGolo61YeESLTydebkIApdTe5hdNwM4+MeryWOuezHzGN2EnOiwobqUheafuTyriNt8Y8NJZsFOWMq/5PBx3afNe3oS9T539jUhVEP5Kt8MTeJHUfoTtnxFxfkx0xd8NN6pDipTRGKhs/0U4VJodaNs2HxI2iK1K8gpWlaHcn4q+Ea7KKOOYnqe67jGgvYEgvNvyljRWTHWDV2ZhW6Gf2giDPZNnu219qFHd3liPATtiR3Ge01uI142G7Nn92ufsZoitDtLtP4SeBPprsAEuT51Wiyg6Al2Iix/kJBHTAOD/XzWLUw8Y4vq6MUq01BGW0bRnAYMjE4F/DiLiEO3PZ4TrgkaF+u8Pvf7iy4R9zt6ts+9hZ2UrSLjfaIzrp4Fu5oZCYKa8exXxz2NvPLS/cr5X/pRdp7hm+bnjPJ/4bu6LaLVMuvG48txtWf4mJV4qdgYiJFugyaO+UYnaMbEdKtT/sXFp+Ky6Wfi8ul5eMEyfQC+2KWcOlSKL/0re5ZxUyueveDBNbRuJvipas/t9PYeWSuvapxNk2EtouwZN+PGcOLR+DKF1j6nVDpMm04x/lxTxof6VObYpIYFb8kARgu8rt4ZdWhmqsirAM7dfOjNXa0Qje58RFeDhNj3+d697i/LN2nn3S2VPl3WF/OLjqhq9x4OaFSG1vVInd0x3Zm/Pcyq1sxj9ESPJOEbiVZ6zw+/2mtwblJcQK9yGk+4+yUe8/MlH97OJhb/93Z2Ti49bWD2m/j6v7erPdFINBcRHTaFh4522jDJ1R8/sX3/67Nz+BXZQQ7KU8c4oHFeyJM09fKhKHNHr8+m+/O25QT+lWtcxS/oiTk+klP1Ez2vxFCt6JkP1XYDg+FzfK+eOwd3XYh23iu3eZIfmU3OSZydH0em2KMHfberycF4zx86rCNVbatfWabx79m/dP99ats/WNOGJLtbYV/apxNFLrdpkMfZcK+z1+HndKX5RrZ5cyNj/xO8sj4VdnMe9fc9+vC5+/Xe7N3LoPr5irHF4eMHa3Q9ebs1H2dVOzLxxnJf/0NKC/1TJinNS/ShAtk/3WS8Qrr3N9E6J7bAtQPgZkIqHf4Z6qPYiAAgY9CQJeqcLLejFnQnKxxVFQRqGx0GT8hjNDFpyFwIQQQuhdiSLoBgbkJLFBYVrvFwdOdc3ec8sYScFKWxhaykO8hdBdiCJoBgakEELpTCfJ9CFwaASt9SZGyc9LeX9CO4Um5naKy0jbbL+ZN+Jn1U1Q/dx0I3bmJUh4EIAABCEAAAhCAwCIIIHQXYQYaAQEIQAACEIAABCAwNwGE7txEKQ8CEIAABCAAAQhAYBEEELqLMAONgAAEIAABCEAAAhCYmwBCd26ilAcBCEAAAhCAAAQgsAgCCN1FmIFGQAACEIAABCAAAQjMTQChOzdRyoMABCAAAQhAAAIQWAQBhO4izEAjIAABCEAAAhCAAATmJoDQnZso5UEAAhCAAAQgAAEILIIAQncRZqAREIAABCAAAQhAAAJzE0Dozk2U8iAAAQhAAAIQgAAEFkEAobsIM9AICEAAAhCAAAQgAIG5CSB05yZKeRCAAAQgAAEIQAACiyCA0F2EGWgEBCAAAQhAAAIQgMDcBBC6cxOlPAhAAAIQgAAEIACBRRBA6C7CDDQCAhCAAAQgAAEIQGBuAgjduYlSHgQgAAEIQAACEIDAIgggdBdhhgU24rA1N7d7s378Z16+LbB9NAkCEIAABCAAAQhkCFy30H26M5++H8z93zezW38AX8m1t/r7q1nd/zVvEzt02N6Y2/3aPP57MZeqc5/uPpnvh3vz921nQvMfzPbm1uzfN0di0JS/fjT/FrSSWJrd0zb6AGO2a2LO3k/m7tN387qK+ePUvtblH2aIDVNbIn3ft/Pl2N3tbdWv12PFlIRlZpwbjmF/VZlH2ny5VF8rmS4tnqvsfIQPXbXQrZ3g3Ww+yK5lur31RFaoshl2YOtJ+fnrdMFs+2zZ/u2XtxnaN8dISAvZivXz14gInrH+SUK3sPnNb7MThfq4NtYT8Wrw4u84tj32YmMco3HfSgvZirs55qJnyUI3tPPyxMdcY+04sTXtk3PODeO8f5ZvHUmsL8nXnu5uzO/dfBtvCN3a865a6M4y+JZSyNOTefr2bZ7d12rl/Gy+zrrTndvRWgrIah1sCpzm27djbvPPwCO3E4McnwAAIABJREFUw38ypDP05WRtXWJFxdh9KsbuUY9Olix0Q5ssSXxUrZtxrB1/Ee3xnHNuWOLwmdim5fja/GMUoYvQzQ6P9C5VPbkfHuI7qOUA+rnO7IoWovLu1w/z4qcaFIH1zrzodz+rQFxu6OZSDfI7E6mBXw2cw8OI43aNGCradmfMi3+UX/bt5zq9u5rhddjemV8/XpQpKgN2XcpFwfaLeVOlH5Tllh0sV+wJHtVC42AecrbMTb4abtUcXkHPLpLits/bdrzfpIZpWe/WfHlz267aFSkZV6aQ0laaOiNjM9sXJfe+Z/odt2E752W5/5n/VX6UmES1/maZIjaeNDFPMxbdGGT3I+IP6viX8qeynp9mLS3wc2OtWBxv736ZHy8Jf2qrzpYVa2N+zsn6Zm7W04yLXBnVXkEuhiVYa8qXPqOJxcI8cXShm2XROUY2vUizSCo/U2qHMn0xLnRz/PO+NtZM5/jede/o+gGn2clcb4x5fX237OHmVNXHu9afvby64O/FR5282SYobzavRT11OW36RPK7QoBs0xlc53GPnutj0Y3ZFJW5zZZEuDwhivVs2qPW5li2qKMT2k0+1XvJ5sWYu+Jim0206HH9WYF5zco0ObLesBjEuj0SdctwWDs5um0/vDq7flYRvE7rqJ3E6VMqBSa068qsVu/m3U5daJk51cv5fHE/0XAT+tBwLToX5GYnbZ9ss4ZnOuwFk5AwdpoBZP6uf1apSN1/jq/E7aYdm+kx0E7urp/3PiEsBkR2XqxQxiSXouD3q8Lf3gs2do7uAH8ryw/jSO+b2ZjXjBvbPEHcs8Zibfe6zU7ccMZim4PoRpaC4MDUG8lP+zKSfRvIsLLT0FzT5sjeHylOvAk+YzFICush48K/zyLMFVkegm96No1GhICbPhanbCjHmFRfmxhr/Hz6xo/a/mRZWD2VbGzFL6n93Rza6eT6jo7936oY9+/v/V0btV5I6Jt0xF7mXxG69mW0zjFDwdZPEJndFymo+P/WOrV/8aT5d1cwPZnt9rPZlTu+ojDfu5NXO6FYg7AdJPaEHr0UIbVfCszBv9mD/HMtUp1AENn1k5jHxkqEY4xXPahLPFbOU1Hf9s/O7IpjYvECjH9RJLBJH6gDERMEvqYjAr8u4HRBXuKT2SnV7gwFn5P6ULc12AFQ2T6/o9uadOhRmjwJFVHYGjt98LbGrcpujQ/YOcmxsangkN5t8Rk1/9/zmcBnVTHJGzCCX4QxYLi/SXGkqlkR88aNRVf0B3cUGjaOeBfiX27qlXb0dOInZsOt+bPbJU5Iph5Rh7ZL5ngrhG65ALHjaG3rnFj2+6HwqWbhNiotLiJ03bYLNsnMqzpbe32VynQ4K1gEjhnxi0j7q8urqflDNbf6depPl3Ljakl/R+gKQtd9Ustz2NZ5IqtQOeB4zhMJPFkR4H0v9nl/UhGPZiJtkD4rT+DC8X47IDebYrPTXxGnha7qGTMv0OV45Y6kwuNR6Va6t0pvJ1LvElmqLfLfJL8K86KT4kkrdGMThHARzm+rzvZ6oTs011E1CYk7ZH7AVvpfamwGlxPdMRCIAyfSy3Ek8HtfvIl9S/OW/d6b0CKCI+VvsfGkiXnDxmK4CK1Run3Qxr/0hBuZ2JuTg+6ESvSLsYLVjynDJYHLs124Rl5z0AhdPxb4fqfpv8anmjli1MtAyjgmxrDEC0KqGBOk/oQ2dMrRsFAK3eS4azdmIqcEuTmyPaHct/bP6JvhnrqMbyB0hwrdbgejyzmw8lWFYxnLzt3gHiAyHTfxvhedPDSfSwQu/+UG+dikaZlwrF+usMNAphQaweaUlyZS/D2eemB/OS++wsAkvRsc2YkbIHRlO3nltjuJYlwYPoFJNkseo3ebz27qgs72KdbSmNAfLasmoSlC15/AUmPTPRXsLeXvqlQn6X4fJXtLTxtKgtT3SwXvYBEj70jJ01AiXSZ4jk8T85qj3sQLI+LpSqyuphxt/EtOteLxcvuNzI7m0BSEriH52BS0WWqncyJop1949hsjdFXjYpxP2cfngwTvSKE7dJElL8bDRY0rIqXNrGjAiNylkRZOcV9x6h+yeSbNNfY8bv9dm1ayDD0bbQVCd4zQbXF2DtEGFmUAW6jQja3+coGi9y4r2AbvgQ4VusIuhRfo0u3K22J5Qnfgm86iH+W5Bat4Kzz4PqCzfYx14w+2L2h3oZs2HV3o+juoY8emE2J78ddP5EsUusP8TbVgE6eagWOx3LsV37h2d9HmFLrZEyXJL0YL3YE7wcIuaHxc9jG4W9iOEbqqcSEJXb1PdYJX+3b0woSuk2tdXP9yLoMPjHP1sDm+0A3SfyInlHVz2pzfM7z7PLNwRuhOEbqlMQaJr272Fn+oInvMoExdqHfhvIsi/u5IMBCVK8eEA3bBt7l8JubO5Y7I2vK1OZFDjqS8tqtSF4I8QJnT8NQF+eJCdsK1+6CdfJUTRO3O7o5u1ier9kR8R2rfwAng6ELXb8+QnZFMMBaPl70jwsDezeTSiZS5UhdUKRHpDiWPUKM/vNJM4ckfZ4nky/tlKlOX/PiX6VX2pns/6SsuY6km6GFCV+I+aJE/RuhqxsUMPjUolUkZx4bGsCExJjanPRbXvZ13sEctgmS/SC4w2xz/SH3uWJDidGYROqofqkFw0g8hdIcK3SIA3Pze9b88JgaE8NfJDlvrgkIs8Aj5MaWjdk+U+d9rPx/smLn1iwMlUpYotGJ5O0/Fxa7PxcWu8rlZUYS7F8HEdsQGUkxg2pcmVLxsFvWgbp+EE49Li9Om4Ijf+XW04UK3XQy9B69UFNyCY29/9WxdRvRDQ2Ix0AfkfndxTOpC2PZ2sWbZvjK/8CtzvmhrdiwKi1gXBJv2RS7yDZmEXN+N5OiWaQW+HTQ7ztkxUPbDfuosl/LS2sVmIeyAjxC67U5Mt5tsHXsHO8zBL//F/S29g6qJecPHYn/pMH5SUb3s0j4TJ+x+tjtl/cUddyDVYkBINdn+KS4BN48bJ4WE9d3qc+3TgEKbhc2RfoHpXZzt9kW8X1Nrd9q6fhd+4/xwzJCdViv1JDUufP8f6VOlCLV/NChYSAcxw7LVSKErxTB7Xg38WtXXul12GoZ7KTpi+yIGdpfLA6mX2jCoJqYuTTK6M2uN59qvy0q8E2cr1nbtb8vO6ZuTytP5KkPoDhW61gBvzRDkGdk5Lp2tcjdYu6jmPRHi3yT3dhUU7dEI3ezOnVBPNYTKX2L7XAb34lklJ58ndmzd5i3Zz4tJubHh00Gr+3uz3hfPKNi//hawdoWiHYgqwv6TLd6uUR8cWsP5wnOE0C2L8tpZ+szD4db7NaxIvmM0T8r9fOuHfp9DbgN371O2b3/kwOlf/NmpTWHDw96+dJe+mDO70F3fm/vDvvhp54h9U7tfGQ5p30nsptivY/nHuGOErjcB1+P0r1n/9H/tcJi/JXcRczFPaFNqLFZ1Fb8UV+2UdamOQm63Iv61QsfdjZPErjexCs/TtX4TLhj67+YWE1KsTe9C2/m3tXC5vz+YfXc5UrCjZvFWS7X6hZzcuJjLpwQ/sQVizUYW/OGzbANicWKekPzaj6Hy+KkCe/3T3fbTmp0rDBtflTWaX2v15yp//ujmXudHZjw/KX3g4WBu7ff1/fFSfOZ+XcTD9lcZNePJGyYf4f9et9D9CBY6SRvrATn3T/6epOlUMiuB7IJn1tqqyH6EX+GTGpnPE527a5S3EAKVyNH8mM5p2tuK+H/dj8ycM/4ua1yEbE5jk/G1TH9BY3zdfFNLAKGrJXXBn0uuoi+433QtJJDO/ZufmJOaM3/xVonLmtCP2lUKD+ye+gXL0+ISnjMrhXjulx+P1sgFjQsn7eNoHZ634IF3DuatnNK0BBC6WlJ8DgKXTMA62kv9wtusCMqJTf3zyVNrXtCEPrUrfF9PwM851H/zKJ8MF5J+bvdRqk0Uupxxofrp7lPjSdaXvl+wqKZeeWMQulfuAHQfAhCAAAQgAAEIXCoBhO6lWpZ+QQACEIAABCAAgSsngNC9cgeg+xCAAAQgAAEIQOBSCSB0L9Wy9AsCEIAABCAAAQhcOQGE7pU7AN2HAAQgAAEIQAACl0oAoXuplqVfEIAABCAAAQhA4MoJIHSv3AHoPgQgAAEIQAACELhUAgjdS7Us/YIABCAAAQhAAAJXTgChe+UOQPchAAEIQAACEIDApRJA6F6qZekXBCAAAQhAAAIQuHICCN0rdwC6DwEIQAACEIAABC6VAEL3Ui1LvyAAAQhAAAIQgMCVE0DoXrkD0H0IQAACEIAABCBwqQQQupdqWfoFAQhAAAIQgAAErpwAQvfKHYDuQwACEIAABCAAgUslgNC9VMvSLwhAAAIQgAAEIHDlBBC6V+4AdB8CEIAABCAAAQhcKgGE7qValn5BAAIQgAAEIACBKydw3UL36c58+n4w93/fzG59JE84RR1HavrgYq+pr4PgHMz25tbs14/m38u36ptPd5/M98O9+fu2M1HXO2zNze3erB//meZrg2rlwxCAwAURUMZXVWy5GCxP5u7Td3O4/2vejjaJx2DVdb+ajXn892LqyD7Tf0pbZ2tjDqkQIXSPLHQP2xtzu383m8FipRhEN7/NLiWEsl5+2g+M7+tp23n62pqAuOqFrWoyIkhNMlXpj9svbywSJlGc98sfxyYLjL8q8dMsqt+Hiq8F9lfleucTulUMN/3mhaq52g+pbK0ojDkEoVtsqx1/R1fhi+JHlty2sX3iex0BhO6xnSHcRT92jZSfI/CBbLLE+HvMNh2z7JxbTPr7uYTuk3l6+ma+zbqNa4GYyx4IXYRuXOjWAfnwED8yrnYvDw/dUfTYsfp0d2N+74TUiayjlwP8p1ln0i4O2zvz68eLl5qh+W7B4O6X+fESO1ovyrgz5kV7pl71xyiOeBQ7C9XgPZiH6HGRpn+hxUqb3pmX5BFYZffnr4mUA13drtAtv/Of+Z/fn1SQyjEoef9cp1MjPARRXxzj3Ln2SWXm2jyozLyoGj2Glb4sj72BMIs+3/36YV6CY9nI+MsxbKsvWW6/mDft+K2+p/Pt6nPiaVTeJlUtdWDxjoK1dXt8sz4TifXZ+GvMXLHAaXHKt7w2lTHkv/8NSWtKMDxXf4PhkJ97az9s42VK6Cp9RhwLuXkoV7amH0EANp/++1+tKRL2GBS3EnNIrpzc3wdGsrN+nNQFO3Whcq7XwCBO2kHwmVU6x9d32CaQbTav5tWuyj/W9pqx6nKQ2rwgu5luG+ojlY3ZFBXUxdTHWJ+bNAq3g177m4Hx7nzIOgaTGLVtFwZnm86QqjNsb/3pvs/Nt3NtM+2xnVXbJnG0VJX3bNYbU9jC7nFo06qNgWvYx4OpumM5uiuzen83Dmu7vVKQyjEQ/p5Lmwn7VvhO6Z/2sZwYeIVJJtc+Kdzl2jy0zMznRZ9M+UnnfnUaUnL8SD5YjsAqdUkWenV71v0iUIgR1fc/h/5ajxFT54AHTbNzwOu6n2tnd3wu5x+1sChzEYfEHG8MJ20itK2Lh/m6xRlU4TOB3zd1/hHGuh2LpsUCeb7XxMlW/KxWRcxwg4azgRCeFqUZSv05dn8DCpq5VxpbqzqGFpOwtUGR95nYnLN5/GvWP92xZLPQ2CnmV7m7GM4MVPSr7la/CTYqbgVziMSmClD9pt1QjXNWCaurHKGbzNGNCJQheTmi0C2mDEvY1gGsSGm383gjKzrpyNv/t3agBUIxjC5eIn/TX+Nekjpst+bPblfssDSDxBMFT8XfPxd/X/ttbgaZG4TCOqT21v8mCEnrQlexp+Je8mqE61ft5cJuMrTrCfNpRfv4LJJ1R/yocoM+QAc5zkGQkoSS+2/5XSbPCQQx3QXUIPj5Fzd9oZtvn6xzU7vk48oMfKOtOLF4SF76U/pyzc6doIqtP7P9szO7QULXixFl+0V/jQT6IH70C7E+zsjj3S9xbMzRjeGqY51Q90W3pu6QgMZnat8tFKKcwx3bUZNi9aBYINhL6VttHHLmjtYnrLEqzgfexdeA6yn7q9Imgg2FNkbnjkx/w+9ZGxU+S2ceCkaHN4dm/Eroe3xhYm24TIxbqdjmL7SPmnussv38H0LoZi6juU44ItFfFLo5wVAYOrGDFgRn77hLlf9Z+ZIfTDL5ToljkKo4r83BTlXjv74YENsriuZn44tYR9g1k1Be4HcNEV81EAe+8EKCM5En647t6PqvLnj8fd4RMW0zqHejMqcMVhyRbaSbZNqdvu7Gs6J90q5GzTHS5pFlxoSuvBBodhS/xm9uT/LljveQHV3hNZjc+LPnB9UiqTl+t3eTI4vhUTEnJradxaoUh9pGRERD6ni/WxBkYoUgEJ2uD9hoqEOftTAfGIe0vhU7zk4LWyXDE/ZXK2M0gj2IQc2iY4y/inbI+Zq42bI374oToppDZM6V5tIgZS4ft9rFcXIR79Q1QuNoDXrGzyF0faErHXnZu6/OMZ7iZuucQlc8jmu9pxcKSaErHRG1gzI3kcZW/d285F7ui7bDK0cldCNHW3XVvR3s452s4I31Vxr4weQcioR43VqhK+1QW8+LqRjYKRR5wSvbaKTQVbVPinaJNk8t07ObfOzctCkxOel8WRayfY+PK3SlvgW7tx6PmMjqtXn9xJ2fFVH/PRNzpgpdZbwLtbmcgubHim6HtAohXoqTGOvi9vU5DolDOt+q1LR4eTq5MNcyPGF/o3onOffG2MubA2P8VS10U3NoverpUyBzglc1B7ULqQi5bHqe/0SlHW9D/eCmKik0zhkFrLZqhK6QoxvkJ4nvnfa5LskctyMI3dy7qrHAGRyNR1aj0fLPLnT1bx53E42zSPGGRSTIuDvO+smtLT2sWyt0vdQQv305/k73+mCWEvzzC129jcIgJbR5UJ/tEmW76U873NbpxMi5hK6wCzPXjm5u8dtgUi1WgxOkbsQE70xXf1HWLQvdAX7YCRP/LoJfxhyxIPR6nW/Fha6fIuKUp2U4UejGY59Sigi74OJparDhkDkFi1QvMdcI3ewcatcn+ZXfniFCN/fuutTXoPxYap40XpQaR2nic34MoWsJXcn50xNjbmITgpMYUITjC+3nBO9Ri5czpS4kA3PbH7//2oAdBJrEhBcpU3dklslvzOwKizYSUxWs1fgIBjlhJ+/oCbnYkj/6uYUj2icFv1ETdVCQcvdUGX1jO58qX+7qSIhvOw8wJu5jfFX5e2N5ZNKZjil0Y8e6OZuN8UPlojIZW727DV0zM4s1rW/JO7q5RbTOftq0iLpPQ2Jfzlj13zVzbypm9vdAdP0dJ3SlMZTRAFlflNvrp/dlT15imDV+nfRPhcbRmfisn0Lo+kI3mHDsSyH+kyOKQTV2RzclwoJ8xsIZt3/Mbpf61a0wOEmXjuqJ20+Cb5/yEnaOyv61z1hFxOm7cPEuu2seO/YMHkJ/Kvr+uej7unrux/6BgGxwsI7Kul15YWehO4qyjoj8lX267shkVF5j79gM2JWLMihv32/Nl7f2aSZFkApyFa1bucILEF3umcWut6XQh3oa62wURrvyO6k2jykzPnl2F7qCo+riwtjn4sJY7Gp029+ML7e+4jNpnyr0x1efbpDbTSz1ReSX8vwFh3i5a6zQbY9N/TQYRcwRJlD9ItyyYSbeyT5V3pz3j10tPyzadvN719/U1y6s21260bFAmO8H+padMhLuMIaiMYjprVi15oyob83S34wwboVucu6tPlSlBHRjS4xB4/01v6OrmENzfiWY37dPn/YSXkYLcn+fdHGrO6VtGPan0G28b+saoXHOKmF1lSN0nRxd/+mNjbm/P5h9lwQu5LakjsbrpaqbV6XeqXXryj73ovnVLT8HqvjO/Xpv9s4rEmEf3aPv8HkSVyR6O6hC3pV/lK479rR2EvwErHbSsXOjGv9PppW0wuH+3hz2Vh6ilPOUKzv594jQLbg/Fg/B9c+WyU+9uakkgg+WfW3aHOZpKnKsvLav7h/N1+fvzk8WV/S95+nap3ienUtc6fZJYSnf5uFlNttE1nOBFgfBJ2uEmTdJFb4scXJuyftPdZXj9uFgbu03pofu6Aq2WRU+vS58ur+UM17o1mFMeF4vF3Okfji+1tokvSDL1S1PdRmfydoyHn+dHEwpzuRihdTgbHvauaQw6aMx3623DjXxNM/wmP2VX+txMeTm3vrTuhg0zl/zQrdqgJuz7s+hGjsG9vd9tRgXf9fmZ/H0pXP5ekzcEhbHvi9sqvmvrWuExtFpzbN+6rqF7lnRU/nZCWSPlc7ewjM1QLETfKaWUS0EIJAmkEtXOjm/Ks6Gr2CcvB1UeLUEELpXa3o6Pvqyy8WjQ+hevInp4IUSWN7YLYX3z3X86b4LNQTdWhABhO6CjEFTTkyAHd0I8OVNlif2DKqDwIcjIOZ2nrsXZYwd/FPT52409V8aAYTupVmU/kAAAhCAAAQgAAEIVAQQujgCBCAAAQhAAAIQgMBFEkDoXqRZ6RQEIAABCEAAAhCAAEIXH4AABCAAAQhAAAIQuEgCCN2LNCudggAEIAABCEAAAhBA6OIDEIAABCAAAQhAAAIXSQChe5FmpVMQgAAEIAABCEAAAghdfAACEIAABCAAAQhA4CIJIHQv0qx0CgIQgAAEIAABCEAAoYsPQAACEIAABCAAAQhcJAGE7kWalU5BAAIQgAAEIAABCCB08QEIQAACEIAABCAAgYskgNC9SLPSKQhAAAIQgAAEIAABhC4+AAEIQAACEIAABCBwkQQQuhdpVjoFAQhAAAIQgAAEIIDQxQcgAAEIQAACEIAABC6SAEL3Is1KpyAAAQhAAAIQgAAEELr4AAQgAAEIQAACEIDARRJA6E4162Frbm735t2szP3fN7NbH8z25s6Yl/J/awsvv3Nr9utH8+/lm/ZL4ucO2xtzu1+bx38vZlpJk5rBlyEAAQhAAAIQgMDZCSB0J5rg6e6T+bn+a96+bM2n769NaZuBQhOhO9EMfB0CEIAABCAAAQgEBBC6i3AKhO4izEAjIAABCEAAAhC4KAII3cKc1XH/4SGaNpD7e+sR5ee2X95MNPvg6c58+rk2f992xs1qSAjd6Hd6PyzrvTMv5q3IlYinLjyZu08/zbpKr5B8uG7D4eFfvP0X5fp0BgIQgAAEIACBSydw3UK3FJFdukFp6jbPtjZ7LRrfXR/YWHm0VX7us1lvjHl9tT9npy40ItYrxqzuLcHrC13Nd4pmBe0verBamff3PkdX7IPXzzL9wsVgt+3ShwD9gwAEIAABCEDgUglctdCtBJ6JXABrLpmtH60dTv/fuotolrBt/q24mVbtsIr/VQL10FxeqyR1/jKa5jtSe4IGlDu7382ha1/9/4ukYnZyL3WU0y8IQAACEIDAlRK4YqHb7prKF8eqndDnr16aQf2d56+NiJXEsEa0Bt9TCN2IyHaEeLcLnXp1waurFcf2TvWVDga6DQEIQAACEIDAZRG4YqFbGrLezazfSnAFb3Ccb9u9FYUDhK5U3qbbRZWFbvI7wQ5v3UAxR1dIcTC2sLX/juC9rBFObyAAAQhAAAJXTODKhW5r+V7wtuKzEpmHTK6qSugKO8fZHV3Fd5RCt83RzYnqikQneIc+j3bFI4iuQwACEIAABCCwWAII3c407q6q6ocXNEJXk+vrpztoviPWXWrV8mJZK1SlneJMmkSk3MV6MA2DAAQgAAEIQAACEQJXLHSLXdyb32bXPfXlXdKK5a4+bc32865+omuA0O0vp/UvKkR3WYMLbYnvvPe7r32qgyd0Tb8z3b3C0KYoFLu4N793/cU5b6e4LtN9jYLRBAEIQAACEIAABD4CgSsWusITXs6TX72Q9V8G6wSqRuhWxbjPlK3u7816v7deOgh3WfPfKd3LzjEu/m/Z/oeDua0eUWh+Arh7iaFxx+Iz9+u92bevTfh/r4rpX4xA6H6EYUwbIQABCEAAAhCQCFyx0MUhIAABCEAAAhCAAAQumQBC95KtS98gAAEIQAACEIDAFRNA6F6x8ek6BCAAAQhAAAIQuGQCCN1Lti59gwAEIAABCEAAAldMAKF7xcan6xCAAAQgAAEIQOCSCSB0L9m69A0CEIAABCAAAQhcMQGE7hUbn65DAAIQgAAEIACBSyaA0L1k69I3CEAAAhCAAAQgcMUEELpXbHy6DgEIQAACEIAABC6ZAEL3kq1L3yAAAQhAAAIQgMAVE0DoXrHx6ToEIAABCEAAAhC4ZAII3Uu2Ln2DAAQgAAEIQAACV0wAoXvFxqfrEIAABCAAAQhA4JIJIHQv2br0DQIQgAAEIAABCFwxAYTuFRufrkMAAhCAAAQgAIFLJoDQvWTr0jcIQAACEIAABCBwxQQQuldsfLoOAQhAAAIQgAAELpkAQveSrUvfIAABCEAAAhCAwBUTQOhesfHpOgQgAAEIQAACELhkAgjdS7YufYMABCAAAQhAAAJXTAChe8XGp+sQgAAEIAABCEDgkgkgdC/ZuvQNAhCAAAQgAAEIXDEBhO4VG5+uQwACEIAABCAAgUsmgNC1rXvYmpvtF/P28u08Nn+6M5++H8z93zezW8eacDDbm1uzXz+af+dq53no9LWWdrrdm/XjPzMagbKMw/bG3O7X5vHfizmVVzzdfTLfD/fm79vOtG5Q/dtrg2BT2H73ezqDIXbM8noyd5++m9eV2+4hVTifVY2FsHSJXbwNY8bSmO+MpsAXIQABCEBgIgGErmkmrnef5CojOCeSF75ei6p3s0kKOCZakxVdCttUQurVrO7/mrf4qqKo6ohCV1xYtf646cW11F9l+xUkdB/J1FcJTDPf4ks3FvymC+ySvRsjzhl/OodpPnXuzYNBjeXDEIDAJRK4cqHbToyhqC0n2u2Xt/E7hkfzFibaWYSu0j7HFLrqskfubiq7OMPHnszT0zfz7VRb3jO0eHwRjL8h7NQY6CGkAAAKqklEQVQ+PqRQPgsBCEBgAIHrFrqDd8XqSe75a3oXsOSfE8rVBHB4UKYflPXeGfNSpjSkJtpyh+qnWSdTH8q23ZlfP1689Ii63MPDgHSAmXdryl3Bn+s825TQHcZVHillGXfmpdrpTU3U2vY+3d2Y37swHUUtAoYK3eLzZfvltA6NjxSfKd1NnRdS74wWW9DZhWGMxYCYVX10eDmFf9/9Mj9e+nSQ9GZvseP/c+2kj9SfHyB0q534g3mIpr0MH3Py2G17orRD0a67Xz/Mi3CS8VQb3kvT0fiMzDfn43OM16G+w+chAIHrIrBIoevkI86V8yfYta7HOiKO2r454vT/XuZKtmKgmtSezXpjzOurnQfhld+I674oazdZEDQOi+pLK7NavZt3J0dXap+7S10fLW/M5vXV1KmeTbuC9tQtS6ZPNEfpdi9Xm7LjB/O1E9myIJAmvrCPRS9TKQXBUb7CPr7tEukA9kdXq5V5f3dzdLPtrZgWDDcF6zavtjJdm78qp8u0zO080z92bm5j/yqH24R5yql2takALgbvJEPyhbbNEi/BD+puWouVLIvIoPPHgrKcIEdXbGM7Jn0fjaQxOTFIIXSTddb9DWyVjHNpf2kXfn72Vc4Otb81i/c6cJmqjK4t+bgi113y3Znf5V0Cr1F1nSPG63XNy/QWAhCYkcDihK40WfeBd8aetzszJn95RhTEjSjoBGE3uYW5lUWyb5cHmsxl9Cd3QVx0gsUS2dHLS9aFppZrLidVs2MV1tdOXLZwUgpdabcyt4OpyNHN7SSFu8JCeyWbatrbCkZbvPj+UrhyrI0BX6lOn4FQfiGnzHb72ezEHOTaZofONxsb2ou3UpBtt+bzrtgFDZg3vLzxU/fJ9PntShbByBaFbrFqyDB12cXauDV/ij590+zOBuxzQlf6u/9vyp3XBkrAtPz3wh7bPzuza4TqfowdqvJ7Ee0vbvNxJcc37uPhuvOIufBzThuUBQEIfDgCyxK6kR2ikmr6gtYY7nKQDkvyBUH7CU8YiOIrtmMU2UX2JlVZCCknzWYHrH0tYMht9PRnIzyUgsDvkyz8M0JAIXSLLbP0CxZ+GZEyR7VXrDvkNqfQzQr7wLE9P8oxVfJqFxDd4k7JQid0/RdJQqau78bGbltbTrTWgtJ94SPzneZkpz/ZqOuq7PP8tU6FaOOct6iIRbHkeIzZrfn3tB0soRu84hIZg05cyfHVC93seB0T4vkOBCAAgYIAQje3oxsVABqhIE2K9rGdlNbQT+byBCfXGzwaUbl3v8OqmSydMmJHqTEeo4Ru5Ki4GZrR3efUosLtRPzlDHFHNHzazRWQyvYqxd2cQle1kJFSE1qxNXRhEP28J36ULI4idHPiPbKjK50q9QvtjNCNpALV/bPGu/25pODV1Cc9SaixQ0LoJjYdurgipM/4dowvwKSxdPqXblABEIDA5RNYltAteJ8udaHdbbCOWSV7zy5020p6wdtNop4oGCJ0c2/KRoVQM+HaolIjioP6pgjdoW8CBzYRnomaSbiJQjfXXqW4O6XQDZ/r8gTUTLzKdAknJULJYhlCtxVfqafdxgrPyGTSCd7YXYGx9WnskBe6ybiSXUjEdnRHjNfLn4vpIQQgcCQCixO6ZT9PdRmtu0iR3FGJHM/5R4Oq1IVgv8P98QdV6oKfS5k/PuyYej9CEPv3MakLYR6hPEH7+c6qnchwm8g9TtbkzebKiEzao9qrFHdzCt106oIibzQnWrSpC36usJLFUYSuL7qDShSnMqNSFwb+mEmG/fiF52uf8hVdyMSEtCau5D8j+uWY8XqkCZBiIQCByyewSKF7SuydqLaP6j0R234mOL58zzzqHxyNFhPDzW+z637xKrPrEuTyWWkP/mW0V//Yr5jAtn+Ki0j146axyTK4aNfuMCVugdff6evrb/QLLz1Yn+sXMOERrp+mcCguQdUXhoT/xLQDa1JvBE7xcxD61IXuUk7fttHt1Yq7iPgYdRlNyPssy6mfazP1gspK0wkvNQq7mWX72ie2YoLv3Was3anLC6QgZ1PJ1Gfn+2q9uG2f/JKFbn95VLqolcvrFTjWI7C/GFj05eb3rv+hktxuenDqUtdRPwXY1jfGDokd3W7DQRFX7Njj8K0KCXPl/cWQNF4H5jGfcs6gLghA4GMRuHqhW4X65hfJHNP5t8+DZ568o0bVjq6QlxbcIvfy7bycv1IQPhxug1+hyqV8xHeF/Kd+Nub+/mD27cUZ0Z/9fhQsHo35Hvx8sVd22deHg7mtnly13uoU8xqHiNQw5WVzf28O+2fruTOvI6K9ZmqvUpS1x/z9L/vW79COErr1aqb6tbf+v3Ah1qUwF7a4X+8L8Wv/mpnvC9YlUG1etL9AUrPw7ON/T1lO6OfhmOsXVaFo9WPBqvCj9b54RqJ7IzgndC3x6CfOtzFFyH/NvYYSxCjpyTPnvT/vNZnBO7q1PXJxxX61obWg2xfXp5wn9CxXDcYrQvdjKQlaC4EFE0DoLtg4H6ppuV2pD9UZGgsBCEAAAhCAwCUQQOheghWX0AeE7hKsQBsgAAEIQAACELAIIHRxh3kIIHTn4UgpEIAABCAAAQjMRgChOxtKCoIABCAAAQhAAAIQWBIBhO6SrEFbIAABCEAAAhCAAARmI4DQnQ0lBUEAAhCAAAQgAAEILIkAQndJ1qAtEIAABCAAAQhAAAKzEUDozoaSgiAAAQhAAAIQgAAElkQAobska9AWCEAAAhCAAAQgAIHZCCB0Z0NJQRCAAAQgAAEIQAACSyKA0F2SNWgLBCAAAQhAAAIQgMBsBBC6s6GkIAhAAAIQgAAEIACBJRFA6C7JGrQFAhCAAAQgAAEIQGA2Agjd2VBSEAQgAAEIQAACEIDAkgggdJdkDdoCAQhAAAIQgAAEIDAbAYTubCgpCAIQgAAEIAABCEBgSQQQukuyBm2BAAQgAAEIQAACEJiNAEJ3NpQUBAEIQAACEIAABCCwJAII3SVZg7ZAAAIQgAAEIAABCMxGAKE7G0oKggAEIAABCEAAAhBYEgGE7pKsQVsgAAEIQAACEIAABGYjgNCdDSUFQQACEIAABCAAAQgsiQBCd0nWoC0QgAAEIAABCEAAArMRQOjOhpKCIAABCEAAAhCAAASWRAChuyRr0BYIQAACEIAABCAAgdkIIHRnQ0lBEIAABCAAAQhAAAJLIoDQXZI1aAsEIAABCEAAAhCAwGwEELqzoaQgCEAAAhCAAAQgAIElEUDoLskatAUCEIAABCAAAQhAYDYCCN3ZUFIQBCAAAQhAAAIQgMCSCCB0l2QN2gIBCEAAAhCAAAQgMBsBhO5sKCkIAhCAAAQgAAEIQGBJBBC6S7IGbYEABCAAAQhAAAIQmI0AQnc2lBQEAQhAAAIQgAAEILAkAgjdJVmDtkAAAhCAAAQgAAEIzEYAoTsbSgqCAAQgAAEIQAACEFgSAYTukqxBWyAAAQhAAAIQgAAEZiOA0J0NJQVBAAIQgAAEIAABCCyJAEJ3SdagLRCAAAQgAAEIQAACsxFA6M6GkoIgAAEIQAACEIAABJZEAKG7JGvQFghAAAIQgAAEIACB2QggdGdDSUEQgAAEIAABCEAAAksigNBdkjVoCwQgAAEIQAACEIDAbAT+D4fZuHtgyHe3AAAAAElFTkSuQmCC;rounded=0;" vertex="1" parent="1">
          <mxGeometry x="-1950" y="90" width="408.58" height="449.57" as="geometry" />
        </mxCell>
        <mxCell id="J8siXgxXGdqORLvkZh0o-113" value="" style="shape=umlLifeline;perimeter=lifelinePerimeter;whiteSpace=wrap;html=1;container=1;dropTarget=0;collapsible=0;recursiveResize=0;outlineConnect=0;portConstraint=eastwest;newEdgeStyle={&quot;curved&quot;:0,&quot;rounded&quot;:0};participant=umlActor;rounded=0;labelBackgroundColor=none;" vertex="1" parent="1">
          <mxGeometry x="-1130" y="110" width="20" height="800" as="geometry" />
        </mxCell>
        <mxCell id="J8siXgxXGdqORLvkZh0o-130" value="" style="html=1;points=[[0,0,0,0,5],[0,1,0,0,-5],[1,0,0,0,5],[1,1,0,0,-5]];perimeter=orthogonalPerimeter;outlineConnect=0;targetShapes=umlLifeline;portConstraint=eastwest;newEdgeStyle={&quot;curved&quot;:0,&quot;rounded&quot;:0};labelBackgroundColor=none;" vertex="1" parent="J8siXgxXGdqORLvkZh0o-113">
          <mxGeometry x="5" y="50" width="10" height="680" as="geometry" />
        </mxCell>
        <mxCell id="J8siXgxXGdqORLvkZh0o-115" value="&lt;div&gt;ATM&lt;/div&gt;" style="shape=umlLifeline;perimeter=lifelinePerimeter;whiteSpace=wrap;html=1;container=1;dropTarget=0;collapsible=0;recursiveResize=0;outlineConnect=0;portConstraint=eastwest;newEdgeStyle={&quot;curved&quot;:0,&quot;rounded&quot;:0};labelBackgroundColor=none;" vertex="1" parent="1">
          <mxGeometry x="-1030" y="110" width="100" height="790" as="geometry" />
        </mxCell>
        <mxCell id="J8siXgxXGdqORLvkZh0o-117" value="" style="html=1;points=[[0,0,0,0,5],[0,1,0,0,-5],[1,0,0,0,5],[1,1,0,0,-5]];perimeter=orthogonalPerimeter;outlineConnect=0;targetShapes=umlLifeline;portConstraint=eastwest;newEdgeStyle={&quot;curved&quot;:0,&quot;rounded&quot;:0};labelBackgroundColor=none;" vertex="1" parent="J8siXgxXGdqORLvkZh0o-115">
          <mxGeometry x="45" y="50" width="10" height="50" as="geometry" />
        </mxCell>
        <mxCell id="J8siXgxXGdqORLvkZh0o-116" value="inputData()" style="html=1;verticalAlign=bottom;startArrow=oval;startFill=1;endArrow=block;startSize=8;curved=0;rounded=0;fontColor=default;labelBackgroundColor=none;" edge="1" parent="1">
          <mxGeometry width="60" relative="1" as="geometry">
            <mxPoint x="-1120" y="174" as="sourcePoint" />
            <mxPoint x="-980.5000000000002" y="174" as="targetPoint" />
          </mxGeometry>
        </mxCell>
        <mxCell id="J8siXgxXGdqORLvkZh0o-118" value="&lt;div&gt;Bank Server&lt;/div&gt;&lt;div&gt;&amp;amp; Database&lt;/div&gt;" style="shape=umlLifeline;perimeter=lifelinePerimeter;whiteSpace=wrap;html=1;container=1;dropTarget=0;collapsible=0;recursiveResize=0;outlineConnect=0;portConstraint=eastwest;newEdgeStyle={&quot;curved&quot;:0,&quot;rounded&quot;:0};labelBackgroundColor=none;" vertex="1" parent="1">
          <mxGeometry x="-890" y="110" width="100" height="800" as="geometry" />
        </mxCell>
        <mxCell id="J8siXgxXGdqORLvkZh0o-119" value="" style="html=1;points=[[0,0,0,0,5],[0,1,0,0,-5],[1,0,0,0,5],[1,1,0,0,-5]];perimeter=orthogonalPerimeter;outlineConnect=0;targetShapes=umlLifeline;portConstraint=eastwest;newEdgeStyle={&quot;curved&quot;:0,&quot;rounded&quot;:0};labelBackgroundColor=none;" vertex="1" parent="J8siXgxXGdqORLvkZh0o-118">
          <mxGeometry x="45" y="50" width="10" height="150" as="geometry" />
        </mxCell>
        <mxCell id="J8siXgxXGdqORLvkZh0o-121" value="" style="html=1;points=[[0,0,0,0,5],[0,1,0,0,-5],[1,0,0,0,5],[1,1,0,0,-5]];perimeter=orthogonalPerimeter;outlineConnect=0;targetShapes=umlLifeline;portConstraint=eastwest;newEdgeStyle={&quot;curved&quot;:0,&quot;rounded&quot;:0};labelBackgroundColor=none;" vertex="1" parent="J8siXgxXGdqORLvkZh0o-118">
          <mxGeometry x="50" y="120" width="10" height="40" as="geometry" />
        </mxCell>
        <mxCell id="J8siXgxXGdqORLvkZh0o-122" value="&lt;span style=&quot;color: rgb(255, 255, 255);&quot;&gt;verifyCredentials()&lt;/span&gt;" style="html=1;align=left;spacingLeft=2;endArrow=block;rounded=0;edgeStyle=orthogonalEdgeStyle;curved=0;rounded=0;fontColor=default;labelBackgroundColor=none;" edge="1" target="J8siXgxXGdqORLvkZh0o-121" parent="J8siXgxXGdqORLvkZh0o-118">
          <mxGeometry x="0.1765" relative="1" as="geometry">
            <mxPoint x="55" y="100" as="sourcePoint" />
            <Array as="points">
              <mxPoint x="85" y="130" />
            </Array>
            <mxPoint as="offset" />
          </mxGeometry>
        </mxCell>
        <mxCell id="J8siXgxXGdqORLvkZh0o-175" value="" style="html=1;points=[[0,0,0,0,5],[0,1,0,0,-5],[1,0,0,0,5],[1,1,0,0,-5]];perimeter=orthogonalPerimeter;outlineConnect=0;targetShapes=umlLifeline;portConstraint=eastwest;newEdgeStyle={&quot;curved&quot;:0,&quot;rounded&quot;:0};" vertex="1" parent="J8siXgxXGdqORLvkZh0o-118">
          <mxGeometry x="45" y="420" width="10" height="150" as="geometry" />
        </mxCell>
        <mxCell id="J8siXgxXGdqORLvkZh0o-177" value="" style="html=1;points=[[0,0,0,0,5],[0,1,0,0,-5],[1,0,0,0,5],[1,1,0,0,-5]];perimeter=orthogonalPerimeter;outlineConnect=0;targetShapes=umlLifeline;portConstraint=eastwest;newEdgeStyle={&quot;curved&quot;:0,&quot;rounded&quot;:0};" vertex="1" parent="J8siXgxXGdqORLvkZh0o-118">
          <mxGeometry x="45" y="717" width="10" height="73" as="geometry" />
        </mxCell>
        <mxCell id="J8siXgxXGdqORLvkZh0o-178" value="" style="html=1;points=[[0,0,0,0,5],[0,1,0,0,-5],[1,0,0,0,5],[1,1,0,0,-5]];perimeter=orthogonalPerimeter;outlineConnect=0;targetShapes=umlLifeline;portConstraint=eastwest;newEdgeStyle={&quot;curved&quot;:0,&quot;rounded&quot;:0};labelBackgroundColor=none;" vertex="1" parent="J8siXgxXGdqORLvkZh0o-118">
          <mxGeometry x="50" y="543" width="10" height="20" as="geometry" />
        </mxCell>
        <mxCell id="J8siXgxXGdqORLvkZh0o-179" value="setBalance()" style="html=1;align=left;spacingLeft=2;endArrow=block;rounded=0;edgeStyle=orthogonalEdgeStyle;curved=0;rounded=0;labelBackgroundColor=none;fontColor=default;" edge="1" target="J8siXgxXGdqORLvkZh0o-178" parent="J8siXgxXGdqORLvkZh0o-118">
          <mxGeometry x="-0.0588" y="5" relative="1" as="geometry">
            <mxPoint x="55" y="523" as="sourcePoint" />
            <Array as="points">
              <mxPoint x="55" y="533" />
              <mxPoint x="85" y="533" />
              <mxPoint x="85" y="553" />
            </Array>
            <mxPoint as="offset" />
          </mxGeometry>
        </mxCell>
        <mxCell id="J8siXgxXGdqORLvkZh0o-120" value="queryData()" style="html=1;verticalAlign=bottom;startArrow=oval;startFill=1;endArrow=block;startSize=8;curved=0;rounded=0;fontColor=default;labelBackgroundColor=none;" edge="1" parent="1">
          <mxGeometry width="60" relative="1" as="geometry">
            <mxPoint x="-975" y="200" as="sourcePoint" />
            <mxPoint x="-840" y="200" as="targetPoint" />
          </mxGeometry>
        </mxCell>
        <mxCell id="J8siXgxXGdqORLvkZh0o-123" value="alt" style="shape=umlFrame;whiteSpace=wrap;html=1;pointerEvents=0;labelBackgroundColor=none;" vertex="1" parent="1">
          <mxGeometry x="-1200" y="220" width="510" height="710" as="geometry" />
        </mxCell>
        <mxCell id="J8siXgxXGdqORLvkZh0o-125" value="" style="endArrow=none;dashed=1;html=1;dashPattern=1 3;strokeWidth=2;rounded=0;entryX=0.999;entryY=0.501;entryDx=0;entryDy=0;entryPerimeter=0;exitX=0.004;exitY=0.504;exitDx=0;exitDy=0;exitPerimeter=0;labelBackgroundColor=none;fontColor=default;" edge="1" parent="1">
          <mxGeometry width="50" height="50" relative="1" as="geometry">
            <mxPoint x="-1198.0000000000002" y="320.72" as="sourcePoint" />
            <mxPoint x="-700.5" y="319.42999999999995" as="targetPoint" />
          </mxGeometry>
        </mxCell>
        <mxCell id="J8siXgxXGdqORLvkZh0o-128" value="" style="html=1;points=[[0,0,0,0,5],[0,1,0,0,-5],[1,0,0,0,5],[1,1,0,0,-5]];perimeter=orthogonalPerimeter;outlineConnect=0;targetShapes=umlLifeline;portConstraint=eastwest;newEdgeStyle={&quot;curved&quot;:0,&quot;rounded&quot;:0};labelBackgroundColor=none;" vertex="1" parent="1">
          <mxGeometry x="-985" y="270" width="10" height="40" as="geometry" />
        </mxCell>
        <mxCell id="J8siXgxXGdqORLvkZh0o-129" value="authErrorMessage()" style="html=1;verticalAlign=bottom;startArrow=oval;startFill=1;endArrow=block;startSize=8;curved=0;rounded=0;fontColor=default;labelBackgroundColor=none;exitX=0;exitY=0.714;exitDx=0;exitDy=0;exitPerimeter=0;" edge="1" parent="1">
          <mxGeometry width="60" relative="1" as="geometry">
            <mxPoint x="-984.9969696969695" y="300.85" as="sourcePoint" />
            <mxPoint x="-1119.8" y="300.85" as="targetPoint" />
          </mxGeometry>
        </mxCell>
        <mxCell id="J8siXgxXGdqORLvkZh0o-132" value="" style="html=1;points=[[0,0,0,0,5],[0,1,0,0,-5],[1,0,0,0,5],[1,1,0,0,-5]];perimeter=orthogonalPerimeter;outlineConnect=0;targetShapes=umlLifeline;portConstraint=eastwest;newEdgeStyle={&quot;curved&quot;:0,&quot;rounded&quot;:0};labelBackgroundColor=none;" vertex="1" parent="1">
          <mxGeometry x="-985" y="330" width="11.54" height="520" as="geometry" />
        </mxCell>
        <mxCell id="J8siXgxXGdqORLvkZh0o-133" value="operationSet()" style="html=1;verticalAlign=bottom;startArrow=oval;startFill=1;endArrow=block;startSize=8;curved=0;rounded=0;fontColor=default;labelBackgroundColor=none;exitX=0;exitY=0.714;exitDx=0;exitDy=0;exitPerimeter=0;" edge="1" parent="1">
          <mxGeometry width="60" relative="1" as="geometry">
            <mxPoint x="-984.9969696969695" y="360" as="sourcePoint" />
            <mxPoint x="-1119.8" y="360" as="targetPoint" />
          </mxGeometry>
        </mxCell>
        <mxCell id="J8siXgxXGdqORLvkZh0o-135" value="Client" style="text;html=1;align=center;verticalAlign=middle;whiteSpace=wrap;rounded=0;labelBackgroundColor=none;" vertex="1" parent="1">
          <mxGeometry x="-1150" y="80" width="60" height="30" as="geometry" />
        </mxCell>
        <mxCell id="J8siXgxXGdqORLvkZh0o-138" value="askBalance()" style="html=1;verticalAlign=bottom;startArrow=oval;startFill=1;endArrow=block;startSize=8;curved=0;rounded=0;fontColor=default;labelBackgroundColor=none;" edge="1" parent="1">
          <mxGeometry width="60" relative="1" as="geometry">
            <mxPoint x="-1114.5" y="392" as="sourcePoint" />
            <mxPoint x="-980" y="392" as="targetPoint" />
          </mxGeometry>
        </mxCell>
        <mxCell id="J8siXgxXGdqORLvkZh0o-141" value="queryBalance()" style="html=1;verticalAlign=bottom;startArrow=oval;startFill=1;endArrow=block;startSize=8;curved=0;rounded=0;fontColor=default;labelBackgroundColor=none;" edge="1" parent="1">
          <mxGeometry x="0.1111" width="60" relative="1" as="geometry">
            <mxPoint x="-975" y="400" as="sourcePoint" />
            <mxPoint x="-840" y="400" as="targetPoint" />
            <mxPoint as="offset" />
          </mxGeometry>
        </mxCell>
        <mxCell id="J8siXgxXGdqORLvkZh0o-143" value="getClientBalance()" style="html=1;align=left;spacingLeft=2;endArrow=block;rounded=0;edgeStyle=orthogonalEdgeStyle;curved=0;rounded=0;labelBackgroundColor=none;fontColor=default;" edge="1" target="J8siXgxXGdqORLvkZh0o-142" parent="1">
          <mxGeometry relative="1" as="geometry">
            <mxPoint x="-835" y="405" as="sourcePoint" />
            <Array as="points">
              <mxPoint x="-805" y="435" />
            </Array>
          </mxGeometry>
        </mxCell>
        <mxCell id="J8siXgxXGdqORLvkZh0o-144" value="sendBalance()" style="html=1;verticalAlign=bottom;startArrow=oval;startFill=1;endArrow=block;startSize=8;curved=0;rounded=0;fontColor=default;labelBackgroundColor=none;exitX=0;exitY=0.714;exitDx=0;exitDy=0;exitPerimeter=0;" edge="1" parent="1">
          <mxGeometry width="60" relative="1" as="geometry">
            <mxPoint x="-845.2" y="480.00000000000006" as="sourcePoint" />
            <mxPoint x="-980.0030303030305" y="480.00000000000006" as="targetPoint" />
          </mxGeometry>
        </mxCell>
        <mxCell id="J8siXgxXGdqORLvkZh0o-131" value="authSuccess()" style="html=1;verticalAlign=bottom;startArrow=oval;startFill=1;endArrow=block;startSize=8;curved=0;rounded=0;fontColor=default;labelBackgroundColor=none;exitX=0;exitY=0.714;exitDx=0;exitDy=0;exitPerimeter=0;" edge="1" parent="1">
          <mxGeometry width="60" relative="1" as="geometry">
            <mxPoint x="-845" y="351.94000000000005" as="sourcePoint" />
            <mxPoint x="-979.8030303030305" y="351.94000000000005" as="targetPoint" />
          </mxGeometry>
        </mxCell>
        <mxCell id="J8siXgxXGdqORLvkZh0o-127" value="authError()" style="html=1;verticalAlign=bottom;startArrow=oval;startFill=1;endArrow=block;startSize=8;curved=0;rounded=0;fontColor=default;labelBackgroundColor=none;exitX=0;exitY=0.714;exitDx=0;exitDy=0;exitPerimeter=0;" edge="1" parent="1">
          <mxGeometry width="60" relative="1" as="geometry">
            <mxPoint x="-845" y="291.94000000000005" as="sourcePoint" />
            <mxPoint x="-979.8030303030305" y="291.94000000000005" as="targetPoint" />
          </mxGeometry>
        </mxCell>
        <mxCell id="J8siXgxXGdqORLvkZh0o-145" value="showBalance()" style="html=1;verticalAlign=bottom;startArrow=oval;startFill=1;endArrow=block;startSize=8;curved=0;rounded=0;fontColor=default;labelBackgroundColor=none;exitX=0;exitY=0.714;exitDx=0;exitDy=0;exitPerimeter=0;" edge="1" parent="1">
          <mxGeometry width="60" relative="1" as="geometry">
            <mxPoint x="-984.9969696969695" y="490" as="sourcePoint" />
            <mxPoint x="-1119.8" y="490" as="targetPoint" />
          </mxGeometry>
        </mxCell>
        <mxCell id="J8siXgxXGdqORLvkZh0o-146" value="askWithdraw()" style="html=1;verticalAlign=bottom;startArrow=oval;startFill=1;endArrow=block;startSize=8;curved=0;rounded=0;fontColor=default;labelBackgroundColor=none;" edge="1" parent="1">
          <mxGeometry width="60" relative="1" as="geometry">
            <mxPoint x="-1115" y="526" as="sourcePoint" />
            <mxPoint x="-980.5" y="526" as="targetPoint" />
          </mxGeometry>
        </mxCell>
        <mxCell id="J8siXgxXGdqORLvkZh0o-147" value="queryWithdraw()" style="html=1;verticalAlign=bottom;startArrow=oval;startFill=1;endArrow=block;startSize=8;curved=0;rounded=0;fontColor=default;labelBackgroundColor=none;" edge="1" parent="1">
          <mxGeometry x="-0.037" width="60" relative="1" as="geometry">
            <mxPoint x="-975" y="538" as="sourcePoint" />
            <mxPoint x="-840" y="538" as="targetPoint" />
            <mxPoint as="offset" />
          </mxGeometry>
        </mxCell>
        <mxCell id="J8siXgxXGdqORLvkZh0o-148" value="" style="html=1;points=[[0,0,0,0,5],[0,1,0,0,-5],[1,0,0,0,5],[1,1,0,0,-5]];perimeter=orthogonalPerimeter;outlineConnect=0;targetShapes=umlLifeline;portConstraint=eastwest;newEdgeStyle={&quot;curved&quot;:0,&quot;rounded&quot;:0};labelBackgroundColor=none;" vertex="1" parent="1">
          <mxGeometry x="-840" y="570" width="10" height="40" as="geometry" />
        </mxCell>
        <mxCell id="J8siXgxXGdqORLvkZh0o-149" value="verifyFounds()" style="html=1;align=left;spacingLeft=2;endArrow=block;rounded=0;edgeStyle=orthogonalEdgeStyle;curved=0;rounded=0;labelBackgroundColor=none;fontColor=default;" edge="1" target="J8siXgxXGdqORLvkZh0o-148" parent="1">
          <mxGeometry x="0.1765" y="5" relative="1" as="geometry">
            <mxPoint x="-835" y="550" as="sourcePoint" />
            <Array as="points">
              <mxPoint x="-805" y="580" />
            </Array>
            <mxPoint as="offset" />
          </mxGeometry>
        </mxCell>
        <mxCell id="J8siXgxXGdqORLvkZh0o-150" value="alt" style="shape=umlFrame;whiteSpace=wrap;html=1;pointerEvents=0;width=30;height=30;labelBackgroundColor=none;" vertex="1" parent="1">
          <mxGeometry x="-1060" y="560" width="340" height="130" as="geometry" />
        </mxCell>
        <mxCell id="J8siXgxXGdqORLvkZh0o-152" value="notEnough()" style="html=1;verticalAlign=bottom;startArrow=oval;startFill=1;endArrow=block;startSize=8;curved=0;rounded=0;fontColor=default;labelBackgroundColor=none;exitX=0;exitY=0.714;exitDx=0;exitDy=0;exitPerimeter=0;" edge="1" parent="1">
          <mxGeometry width="60" relative="1" as="geometry">
            <mxPoint x="-845.6" y="618" as="sourcePoint" />
            <mxPoint x="-980.4030303030305" y="618" as="targetPoint" />
          </mxGeometry>
        </mxCell>
        <mxCell id="J8siXgxXGdqORLvkZh0o-153" value="yesEnough()" style="html=1;verticalAlign=bottom;startArrow=oval;startFill=1;endArrow=block;startSize=8;curved=0;rounded=0;fontColor=default;labelBackgroundColor=none;exitX=0;exitY=0.714;exitDx=0;exitDy=0;exitPerimeter=0;" edge="1" parent="1">
          <mxGeometry width="60" relative="1" as="geometry">
            <mxPoint x="-844.1969696969695" y="650" as="sourcePoint" />
            <mxPoint x="-979" y="650" as="targetPoint" />
          </mxGeometry>
        </mxCell>
        <mxCell id="J8siXgxXGdqORLvkZh0o-154" value="errorMsg()" style="html=1;verticalAlign=bottom;startArrow=oval;startFill=1;endArrow=block;startSize=8;curved=0;rounded=0;fontColor=default;labelBackgroundColor=none;entryX=0.001;entryY=0.484;entryDx=0;entryDy=0;entryPerimeter=0;" edge="1" parent="1" target="J8siXgxXGdqORLvkZh0o-150">
          <mxGeometry width="60" relative="1" as="geometry">
            <mxPoint x="-985" y="623.24" as="sourcePoint" />
            <mxPoint x="-1051" y="623.24" as="targetPoint" />
            <Array as="points" />
          </mxGeometry>
        </mxCell>
        <mxCell id="J8siXgxXGdqORLvkZh0o-157" value="giveCash()" style="html=1;verticalAlign=bottom;startArrow=oval;startFill=1;endArrow=block;startSize=8;curved=0;rounded=0;fontColor=default;labelBackgroundColor=none;" edge="1" parent="1">
          <mxGeometry width="60" relative="1" as="geometry">
            <mxPoint x="-984" y="660" as="sourcePoint" />
            <mxPoint x="-1061" y="660" as="targetPoint" />
            <Array as="points" />
          </mxGeometry>
        </mxCell>
        <mxCell id="J8siXgxXGdqORLvkZh0o-158" value="opMsg()" style="html=1;verticalAlign=bottom;startArrow=oval;startFill=1;endArrow=block;startSize=8;curved=0;rounded=0;fontColor=default;labelBackgroundColor=none;" edge="1" parent="1">
          <mxGeometry width="60" relative="1" as="geometry">
            <mxPoint x="-1062" y="650" as="sourcePoint" />
            <mxPoint x="-1117" y="650" as="targetPoint" />
            <Array as="points" />
          </mxGeometry>
        </mxCell>
        <mxCell id="J8siXgxXGdqORLvkZh0o-159" value="" style="endArrow=none;dashed=1;html=1;rounded=0;fontColor=default;entryX=0.993;entryY=0.611;entryDx=0;entryDy=0;entryPerimeter=0;exitX=0;exitY=0.35;exitDx=0;exitDy=0;exitPerimeter=0;labelBackgroundColor=none;" edge="1" parent="1">
          <mxGeometry width="50" height="50" relative="1" as="geometry">
            <mxPoint x="-1049.9999999999998" y="633.0000000000001" as="sourcePoint" />
            <mxPoint x="-722.3799999999997" y="632.4300000000001" as="targetPoint" />
          </mxGeometry>
        </mxCell>
        <mxCell id="J8siXgxXGdqORLvkZh0o-160" value="abortOperation()" style="html=1;verticalAlign=bottom;startArrow=oval;startFill=1;endArrow=block;startSize=8;curved=0;rounded=0;fontColor=default;labelBackgroundColor=none;" edge="1" parent="1">
          <mxGeometry width="60" relative="1" as="geometry">
            <mxPoint x="-1114.5" y="720" as="sourcePoint" />
            <mxPoint x="-980" y="720" as="targetPoint" />
          </mxGeometry>
        </mxCell>
        <mxCell id="J8siXgxXGdqORLvkZh0o-162" value="alt" style="shape=umlFrame;whiteSpace=wrap;html=1;pointerEvents=0;width=30;height=30;labelBackgroundColor=none;" vertex="1" parent="1">
          <mxGeometry x="-1160" y="700" width="450" height="220" as="geometry" />
        </mxCell>
        <mxCell id="J8siXgxXGdqORLvkZh0o-165" value="" style="html=1;points=[[0,0,0,0,5],[0,1,0,0,-5],[1,0,0,0,5],[1,1,0,0,-5]];perimeter=orthogonalPerimeter;outlineConnect=0;targetShapes=umlLifeline;portConstraint=eastwest;newEdgeStyle={&quot;curved&quot;:0,&quot;rounded&quot;:0};labelBackgroundColor=none;" vertex="1" parent="1">
          <mxGeometry x="-840" y="857" width="10" height="40" as="geometry" />
        </mxCell>
        <mxCell id="J8siXgxXGdqORLvkZh0o-166" value="setBalance()" style="html=1;align=left;spacingLeft=2;endArrow=block;rounded=0;edgeStyle=orthogonalEdgeStyle;curved=0;rounded=0;labelBackgroundColor=none;fontColor=default;" edge="1" target="J8siXgxXGdqORLvkZh0o-165" parent="1">
          <mxGeometry x="-0.0588" y="5" relative="1" as="geometry">
            <mxPoint x="-835" y="837" as="sourcePoint" />
            <Array as="points">
              <mxPoint x="-805" y="867" />
            </Array>
            <mxPoint as="offset" />
          </mxGeometry>
        </mxCell>
        <mxCell id="J8siXgxXGdqORLvkZh0o-167" value="sendBalance()" style="html=1;verticalAlign=bottom;startArrow=oval;startFill=1;endArrow=block;startSize=8;curved=0;rounded=0;fontColor=default;labelBackgroundColor=none;entryX=-0.003;entryY=0.927;entryDx=0;entryDy=0;entryPerimeter=0;" edge="1" parent="1" target="J8siXgxXGdqORLvkZh0o-150">
          <mxGeometry width="60" relative="1" as="geometry">
            <mxPoint x="-985" y="680" as="sourcePoint" />
            <mxPoint x="-1051" y="680" as="targetPoint" />
            <Array as="points" />
          </mxGeometry>
        </mxCell>
        <mxCell id="J8siXgxXGdqORLvkZh0o-169" value="" style="html=1;points=[[0,0,0,0,5],[0,1,0,0,-5],[1,0,0,0,5],[1,1,0,0,-5]];perimeter=orthogonalPerimeter;outlineConnect=0;targetShapes=umlLifeline;portConstraint=eastwest;newEdgeStyle={&quot;curved&quot;:0,&quot;rounded&quot;:0};labelBackgroundColor=none;" vertex="1" parent="1">
          <mxGeometry x="-979" y="756" width="10" height="40" as="geometry" />
        </mxCell>
        <mxCell id="J8siXgxXGdqORLvkZh0o-170" value="returnCash()" style="html=1;align=left;spacingLeft=2;endArrow=block;rounded=0;edgeStyle=orthogonalEdgeStyle;curved=0;rounded=0;labelBackgroundColor=none;fontColor=default;" edge="1" parent="1" target="J8siXgxXGdqORLvkZh0o-169">
          <mxGeometry x="-0.2" relative="1" as="geometry">
            <mxPoint x="-974" y="736" as="sourcePoint" />
            <Array as="points">
              <mxPoint x="-944" y="766" />
            </Array>
            <mxPoint as="offset" />
          </mxGeometry>
        </mxCell>
        <mxCell id="J8siXgxXGdqORLvkZh0o-171" value="" style="endArrow=none;dashed=1;html=1;rounded=0;fontColor=default;entryX=0.999;entryY=0.455;entryDx=0;entryDy=0;entryPerimeter=0;exitX=0;exitY=0.35;exitDx=0;exitDy=0;exitPerimeter=0;labelBackgroundColor=none;" edge="1" parent="1" target="J8siXgxXGdqORLvkZh0o-162">
          <mxGeometry width="50" height="50" relative="1" as="geometry">
            <mxPoint x="-1157.9999999999998" y="800.5000000000001" as="sourcePoint" />
            <mxPoint x="-830" y="799.5" as="targetPoint" />
          </mxGeometry>
        </mxCell>
        <mxCell id="J8siXgxXGdqORLvkZh0o-172" value="grabCash()" style="html=1;verticalAlign=bottom;startArrow=oval;startFill=1;endArrow=block;startSize=8;curved=0;rounded=0;fontColor=default;labelBackgroundColor=none;" edge="1" parent="1">
          <mxGeometry width="60" relative="1" as="geometry">
            <mxPoint x="-1114.77" y="828.6" as="sourcePoint" />
            <mxPoint x="-980.27" y="828.6" as="targetPoint" />
          </mxGeometry>
        </mxCell>
        <mxCell id="J8siXgxXGdqORLvkZh0o-173" value="confirmOperation()" style="html=1;verticalAlign=bottom;startArrow=oval;startFill=1;endArrow=block;startSize=8;curved=0;rounded=0;fontColor=default;labelBackgroundColor=none;" edge="1" parent="1">
          <mxGeometry width="60" relative="1" as="geometry">
            <mxPoint x="-973.73" y="831.6" as="sourcePoint" />
            <mxPoint x="-839.23" y="831.6" as="targetPoint" />
          </mxGeometry>
        </mxCell>
        <mxCell id="J8siXgxXGdqORLvkZh0o-174" value="" style="html=1;points=[[0,0,0,0,5],[0,1,0,0,-5],[1,0,0,0,5],[1,1,0,0,-5]];perimeter=orthogonalPerimeter;outlineConnect=0;targetShapes=umlLifeline;portConstraint=eastwest;newEdgeStyle={&quot;curved&quot;:0,&quot;rounded&quot;:0};" vertex="1" parent="1">
          <mxGeometry x="-845" y="334" width="10" height="166" as="geometry" />
        </mxCell>
        <mxCell id="J8siXgxXGdqORLvkZh0o-176" value="" style="html=1;points=[[0,0,0,0,5],[0,1,0,0,-5],[1,0,0,0,5],[1,1,0,0,-5]];perimeter=orthogonalPerimeter;outlineConnect=0;targetShapes=umlLifeline;portConstraint=eastwest;newEdgeStyle={&quot;curved&quot;:0,&quot;rounded&quot;:0};" vertex="1" parent="1">
          <mxGeometry x="-845" y="710" width="10" height="34" as="geometry" />
        </mxCell>
        <mxCell id="J8siXgxXGdqORLvkZh0o-161" value="cancelOperation()" style="html=1;verticalAlign=bottom;startArrow=oval;startFill=1;endArrow=block;startSize=8;curved=0;rounded=0;fontColor=default;labelBackgroundColor=none;" edge="1" parent="1">
          <mxGeometry width="60" relative="1" as="geometry">
            <mxPoint x="-973.46" y="726" as="sourcePoint" />
            <mxPoint x="-838.96" y="726" as="targetPoint" />
          </mxGeometry>
        </mxCell>
        <mxCell id="J8siXgxXGdqORLvkZh0o-142" value="" style="html=1;points=[[0,0,0,0,5],[0,1,0,0,-5],[1,0,0,0,5],[1,1,0,0,-5]];perimeter=orthogonalPerimeter;outlineConnect=0;targetShapes=umlLifeline;portConstraint=eastwest;newEdgeStyle={&quot;curved&quot;:0,&quot;rounded&quot;:0};labelBackgroundColor=none;" vertex="1" parent="1">
          <mxGeometry x="-840" y="425" width="10" height="40" as="geometry" />
        </mxCell>
      </root>
    </mxGraphModel>
  </diagram>
</mxfile>
